<svg width="437" height="173" viewBox="0 0 437 173" fill="none" xmlns="http://www.w3.org/2000/svg">
<g clip-path="url(#clip0_1_441)">
<path d="M66.3904 134.374C67.1618 136.187 69.8163 136.792 72.3195 135.727C74.8227 134.662 76.2267 132.329 75.4553 130.516C74.6839 128.704 72.0294 128.098 69.5262 129.164C67.0229 130.229 65.619 132.562 66.3904 134.374Z" fill="#2A5EBC"/>
<path d="M120.612 60.2021C120.993 61.9092 122.845 62.9486 124.749 62.5237C126.652 62.0987 127.886 60.3703 127.505 58.6632C127.124 56.956 125.272 55.9166 123.369 56.3416C121.465 56.7665 120.231 58.4949 120.612 60.2021Z" fill="#2A5EBC"/>
<path d="M8.15368 139.872C10.1919 140.511 12.7785 138.051 13.9309 134.377C15.0834 130.703 14.3653 127.206 12.327 126.567C10.2888 125.928 7.70225 128.388 6.54981 132.062C5.39738 135.736 6.11545 139.232 8.15368 139.872Z" fill="#2A5EBC"/>
<path d="M428.177 91.1076C430.647 92.3209 433.253 92.074 433.999 90.5562C434.745 89.0383 433.347 86.8243 430.878 85.611C428.408 84.3978 425.802 84.6446 425.056 86.1625C424.31 87.6803 425.708 89.8943 428.177 91.1076Z" fill="#2A5EBC"/>
<path d="M407.83 122.831C407.184 126.509 408.316 129.782 410.359 130.141C412.402 130.5 414.582 127.809 415.228 124.131C415.874 120.453 414.742 117.181 412.699 116.822C410.656 116.463 408.476 119.153 407.83 122.831Z" fill="#2A5EBC"/>
<path d="M404.729 139.641C407.491 142.257 411.087 142.945 412.761 141.178C414.435 139.411 413.553 135.857 410.791 133.242C408.029 130.626 404.433 129.938 402.759 131.705C401.085 133.472 401.967 137.025 404.729 139.641Z" fill="#2A5EBC"/>
<path d="M437.005 64.9903C439.145 66.0415 441.557 65.5139 442.393 63.812C443.229 62.1101 442.173 59.8783 440.033 58.8271C437.893 57.776 435.481 58.3035 434.645 60.0054C433.809 61.7073 434.865 63.9391 437.005 64.9903Z" fill="#2A5EBC"/>
<path d="M428.222 98.7122C428.926 100.368 431.351 100.921 433.637 99.9485C435.923 98.9756 437.205 96.8446 436.5 95.1889C435.795 93.5331 433.371 92.9796 431.085 93.9525C428.799 94.9255 427.517 97.0564 428.222 98.7122Z" fill="#2A5EBC"/>
<path d="M345.29 82.1565C346.656 83.2245 349.117 82.3579 350.789 80.221C352.46 78.084 352.707 75.4859 351.342 74.4179C349.976 73.35 347.514 74.2165 345.843 76.3535C344.172 78.4904 343.924 81.0885 345.29 82.1565Z" fill="#2A5EBC"/>
<path d="M52.566 105.071C55.8274 107.239 59.5516 107.372 60.8841 105.367C62.2167 103.363 60.6531 99.9799 57.3917 97.8118C54.1303 95.6437 50.4062 95.5111 49.0736 97.5156C47.741 99.5201 49.3046 102.903 52.566 105.071Z" fill="#2A5EBC"/>
<path d="M208.495 262.514C210.522 263.15 213.093 260.708 214.237 257.06C215.381 253.412 214.666 249.939 212.639 249.303C210.611 248.667 208.04 251.109 206.896 254.758C205.752 258.406 206.467 261.879 208.495 262.514Z" fill="#2A5EBC"/>
<path d="M61.3936 83.1067C63.4658 84.4843 65.9549 84.3836 66.9533 82.8818C67.9517 81.3801 67.0812 79.0459 65.0089 77.6683C62.9367 76.2907 60.4475 76.3914 59.4492 77.8932C58.4508 79.395 59.3213 81.7292 61.3936 83.1067Z" fill="#2A5EBC"/>
<path d="M61.1268 131.027C63.0894 132.332 65.5228 132.122 66.5619 130.559C67.6009 128.996 66.8522 126.672 64.8896 125.367C62.927 124.062 60.4936 124.272 59.4546 125.835C58.4155 127.398 59.1642 129.722 61.1268 131.027Z" fill="#2A5EBC"/>
<path d="M196.415 58.0096C197.276 59.4561 199.886 59.4909 202.243 58.0875C204.601 56.684 205.814 54.3737 204.953 52.9272C204.092 51.4807 201.483 51.4459 199.125 52.8493C196.767 54.2528 195.554 56.5631 196.415 58.0096Z" fill="#2A5EBC"/>
<path d="M137.113 70.0742C139.826 71.407 142.689 71.1359 143.508 69.4687C144.327 67.8015 142.792 65.3696 140.079 64.0369C137.367 62.7041 134.504 62.9752 133.685 64.6424C132.866 66.3096 134.401 68.7415 137.113 70.0742Z" fill="#2A5EBC"/>
<path d="M121.502 149.917C122.871 151.869 126.713 151.536 130.085 149.172C133.456 146.808 135.08 143.309 133.711 141.358C132.343 139.406 128.5 139.74 125.129 142.103C121.758 144.467 120.134 147.966 121.502 149.917Z" fill="#2A5EBC"/>
<path d="M224.882 177.486C226.946 180.43 232.741 179.925 237.827 176.36C242.913 172.794 245.362 167.517 243.299 164.574C241.235 161.63 235.439 162.134 230.353 165.7C225.268 169.265 222.818 174.542 224.882 177.486Z" fill="#2A5EBC"/>
<path d="M164.588 139.339C165.873 139.622 167.301 138.095 167.777 135.929C168.253 133.763 167.597 131.779 166.312 131.496C165.027 131.214 163.599 132.741 163.123 134.906C162.647 137.072 163.303 139.057 164.588 139.339Z" fill="#2A5EBC"/>
<path d="M123.391 87.4318C125.611 88.5222 128.05 88.1025 128.84 86.4944C129.63 84.8862 128.472 82.6986 126.252 81.6082C124.033 80.5178 121.593 80.9375 120.803 82.5456C120.013 84.1537 121.172 86.3413 123.391 87.4318Z" fill="#2A5EBC"/>
<path d="M262.857 179.193C264.965 180.229 267.281 179.832 268.03 178.308C268.779 176.783 267.678 174.707 265.569 173.671C263.461 172.635 261.145 173.032 260.396 174.557C259.646 176.081 260.748 178.157 262.857 179.193Z" fill="#2A5EBC"/>
<path d="M163.194 130.116C166.179 131.879 170.836 129.522 173.595 124.85C176.354 120.178 176.17 114.962 173.185 113.199C170.199 111.435 165.542 113.793 162.783 118.465C160.024 123.136 160.208 128.353 163.194 130.116Z" fill="#2A5EBC"/>
<path d="M161.664 86.84C164.027 89.0781 167.103 89.667 168.535 88.1554C169.967 86.6438 169.212 83.6042 166.849 81.3661C164.486 79.1281 161.41 78.5392 159.978 80.0508C158.547 81.5624 159.302 84.602 161.664 86.84Z" fill="#2A5EBC"/>
<path d="M139.256 85.7535C140.066 87.6549 142.855 88.2885 145.486 87.1685C148.118 86.0486 149.595 83.5993 148.785 81.6978C147.976 79.7964 145.187 79.1628 142.556 80.2828C139.924 81.4027 138.447 83.852 139.256 85.7535Z" fill="#2A5EBC"/>
<path d="M107.22 84.5699C108.578 86.8511 112.69 86.9079 116.404 84.6968C120.119 82.4857 122.029 78.8441 120.671 76.5629C119.313 74.2818 115.201 74.225 111.487 76.4361C107.772 78.6472 105.862 82.2888 107.22 84.5699Z" fill="#2A5EBC"/>
<path d="M47.9369 153.152C49.5653 155.475 54.1373 155.077 58.1489 152.265C62.1604 149.452 64.0922 145.29 62.4638 142.967C60.8354 140.644 56.2634 141.041 52.2518 143.854C48.2403 146.666 46.3084 150.829 47.9369 153.152Z" fill="#2A5EBC"/>
<path d="M109.512 65.022C110.391 67.0873 113.407 67.7811 116.248 66.5718C119.09 65.3624 120.681 62.7079 119.802 60.6426C118.923 58.5774 115.907 57.8835 113.065 59.0929C110.224 60.3022 108.633 62.9568 109.512 65.022Z" fill="#2A5EBC"/>
<path d="M69.4637 115.478C68.7994 119.259 69.9633 122.623 72.0634 122.992C74.1636 123.361 76.4046 120.595 77.0689 116.814C77.7332 113.033 76.5693 109.669 74.4692 109.3C72.3691 108.931 70.128 111.697 69.4637 115.478Z" fill="#2A5EBC"/>
<path d="M75.3217 96.8571C77.3745 97.8656 79.6306 97.4781 80.361 95.9915C81.0913 94.505 80.0193 92.4823 77.9666 91.4738C75.9139 90.4653 73.6578 90.8528 72.9274 92.3394C72.1971 93.8259 73.269 95.8486 75.3217 96.8571Z" fill="#2A5EBC"/>
<path d="M107.798 93.4688C110.461 95.9963 113.93 96.6653 115.545 94.963C117.161 93.2607 116.31 89.8318 113.647 87.3043C110.983 84.7769 107.514 84.1079 105.899 85.8101C104.284 87.5124 105.134 90.9413 107.798 93.4688Z" fill="#2A5EBC"/>
<path d="M84.4003 99.0425C85.1766 100.892 87.8799 101.52 90.4383 100.447C92.9967 99.3727 94.4414 97.003 93.6652 95.1537C92.8889 93.3043 90.1857 92.6757 87.6272 93.7496C85.0688 94.8235 83.6241 97.1932 84.4003 99.0425Z" fill="#2A5EBC"/>
<path d="M77.7763 119.645C77.8667 122.561 79.4827 124.878 81.3857 124.819C83.2888 124.76 84.7582 122.348 84.6679 119.432C84.5775 116.515 82.9615 114.199 81.0585 114.258C79.1554 114.317 77.6859 116.729 77.7763 119.645Z" fill="#2A5EBC"/>
<path d="M155.274 145.562C156.12 147.181 159.075 147.308 161.873 145.846C164.672 144.384 166.255 141.886 165.41 140.267C164.564 138.648 161.609 138.521 158.81 139.983C156.012 141.446 154.428 143.943 155.274 145.562Z" fill="#2A5EBC"/>
<path d="M128.637 164.923C129.893 165.906 132.159 165.105 133.699 163.136C135.239 161.167 135.47 158.774 134.214 157.792C132.958 156.81 130.691 157.61 129.151 159.579C127.611 161.549 127.381 163.941 128.637 164.923Z" fill="#2A5EBC"/>
<path d="M108.873 169.784C108.604 172.487 109.816 174.821 111.58 174.997C113.343 175.172 114.991 173.123 115.26 170.42C115.529 167.717 114.318 165.383 112.554 165.207C110.79 165.032 109.143 167.081 108.873 169.784Z" fill="#2A5EBC"/>
<path d="M134.944 54.1011C135.613 55.6543 138.204 56.0309 140.731 54.9424C143.258 53.8539 144.764 51.7124 144.095 50.1592C143.426 48.6061 140.835 48.2294 138.308 49.3179C135.781 50.4065 134.275 52.548 134.944 54.1011Z" fill="#2A5EBC"/>
<path d="M156.398 49.0223C161.277 52.2659 166.848 52.4657 168.84 49.4686C170.833 46.4715 168.493 41.4124 163.613 38.1688C158.734 34.9252 153.164 34.7254 151.171 37.7225C149.179 40.7196 151.519 45.7788 156.398 49.0223Z" fill="#2A5EBC"/>
<path d="M146.33 54.02C148.218 55.2754 150.559 55.0757 151.557 53.5739C152.555 52.0722 151.834 49.837 149.945 48.5815C148.057 47.3261 145.716 47.5258 144.718 49.0275C143.72 50.5293 144.441 52.7645 146.33 54.02Z" fill="#2A5EBC"/>
<path d="M284.83 188.14C286.848 189.481 289.348 189.267 290.415 187.663C291.482 186.058 290.712 183.669 288.694 182.328C286.677 180.987 284.176 181.201 283.109 182.806C282.043 184.411 282.813 186.799 284.83 188.14Z" fill="#2A5EBC"/>
<path d="M191.735 163.765C193.006 165.899 196.853 165.953 200.328 163.885C203.803 161.816 205.589 158.409 204.319 156.274C203.048 154.139 199.201 154.085 195.726 156.154C192.251 158.222 190.464 161.63 191.735 163.765Z" fill="#2A5EBC"/>
<path d="M243.61 190.288C246.01 191.467 248.542 191.229 249.266 189.757C249.989 188.284 248.63 186.134 246.23 184.955C243.83 183.776 241.298 184.014 240.575 185.487C239.851 186.959 241.21 189.109 243.61 190.288Z" fill="#2A5EBC"/>
<path d="M231.064 253.072C232.133 254.596 235.136 254.334 237.772 252.485C240.409 250.637 241.68 247.903 240.611 246.379C239.542 244.855 236.539 245.118 233.903 246.966C231.266 248.814 229.995 251.548 231.064 253.072Z" fill="#2A5EBC"/>
<path d="M278.822 225.415C280.209 225.72 281.75 224.074 282.263 221.738C282.777 219.402 282.068 217.262 280.681 216.957C279.294 216.652 277.754 218.298 277.24 220.634C276.727 222.97 277.435 225.111 278.822 225.415Z" fill="#2A5EBC"/>
<path d="M226.016 225.966C224.932 232.136 226.831 237.627 230.257 238.229C233.684 238.831 237.34 234.317 238.424 228.146C239.509 221.975 237.61 216.485 234.183 215.883C230.757 215.281 227.1 219.795 226.016 225.966Z" fill="#2A5EBC"/>
<path d="M236.246 199.381C238.382 200.43 240.729 200.028 241.488 198.482C242.248 196.937 241.132 194.833 238.996 193.783C236.859 192.734 234.512 193.136 233.753 194.682C232.994 196.227 234.11 198.331 236.246 199.381Z" fill="#2A5EBC"/>
<path d="M270.747 243.122C272.23 243.998 274.544 242.825 275.916 240.502C277.287 238.18 277.197 235.587 275.714 234.712C274.232 233.836 271.918 235.009 270.546 237.331C269.174 239.654 269.264 242.246 270.747 243.122Z" fill="#2A5EBC"/>
<path d="M160.283 168.765C164.715 170.943 169.712 169.85 171.444 166.325C173.176 162.799 170.987 158.176 166.556 155.999C162.124 153.821 157.127 154.914 155.395 158.439C153.663 161.965 155.851 166.588 160.283 168.765Z" fill="#2A5EBC"/>
<path d="M250.328 237.648C250.416 240.499 251.996 242.763 253.856 242.705C255.717 242.648 257.154 240.29 257.065 237.439C256.977 234.588 255.397 232.324 253.537 232.382C251.676 232.439 250.239 234.797 250.328 237.648Z" fill="#2A5EBC"/>
<path d="M196.922 260.672C197.83 262.198 200.58 262.237 203.064 260.758C205.548 259.279 206.826 256.843 205.917 255.317C205.008 253.791 202.258 253.752 199.774 255.231C197.29 256.71 196.013 259.146 196.922 260.672Z" fill="#2A5EBC"/>
<path d="M189.104 201.067C191.584 202.285 194.202 202.037 194.951 200.512C195.7 198.987 194.297 196.764 191.817 195.545C189.337 194.327 186.72 194.575 185.97 196.1C185.221 197.625 186.624 199.848 189.104 201.067Z" fill="#2A5EBC"/>
<path d="M375.345 200.454C377.79 201.656 380.37 201.413 381.107 199.913C381.844 198.412 380.46 196.222 378.014 195.021C375.569 193.819 372.989 194.062 372.252 195.562C371.515 197.063 372.9 199.253 375.345 200.454Z" fill="#2A5EBC"/>
<path d="M177.385 258.859C178.862 260.966 183.011 260.605 186.652 258.053C190.293 255.5 192.046 251.723 190.569 249.616C189.092 247.508 184.943 247.869 181.302 250.422C177.661 252.975 175.907 256.752 177.385 258.859Z" fill="#2A5EBC"/>
<path d="M126.013 177.186C131.604 178.94 136.925 177.844 137.899 174.739C138.873 171.633 135.131 167.695 129.541 165.941C123.951 164.187 118.629 165.283 117.655 168.389C116.681 171.494 120.423 175.433 126.013 177.186Z" fill="#2A5EBC"/>
<path d="M88.0598 178.486C90.0951 179.486 92.333 179.1 93.0583 177.624C93.7835 176.148 92.7215 174.141 90.6861 173.141C88.6508 172.141 86.4129 172.527 85.6876 174.003C84.9624 175.479 86.0244 177.486 88.0598 178.486Z" fill="#2A5EBC"/>
<path d="M224.767 259.884C226.21 260.736 228.461 259.595 229.795 257.336C231.13 255.077 231.042 252.555 229.599 251.703C228.156 250.851 225.905 251.991 224.571 254.251C223.236 256.51 223.324 259.032 224.767 259.884Z" fill="#2A5EBC"/>
<path d="M128.858 212.497C129.978 214.094 133.121 213.822 135.877 211.889C138.634 209.957 139.961 207.095 138.841 205.498C137.722 203.901 134.579 204.173 131.823 206.106C129.066 208.039 127.739 210.9 128.858 212.497Z" fill="#2A5EBC"/>
<path d="M122.731 219.261C124.211 220.135 126.519 218.966 127.887 216.65C129.254 214.334 129.164 211.749 127.684 210.875C126.205 210.001 123.897 211.17 122.529 213.486C121.161 215.802 121.252 218.388 122.731 219.261Z" fill="#2A5EBC"/>
<path d="M30.3889 204.283C31.453 205.801 34.4451 205.538 37.0719 203.697C39.6988 201.855 40.9655 199.132 39.9014 197.614C38.8373 196.096 35.8452 196.359 33.2184 198.2C30.5915 200.042 29.3247 202.765 30.3889 204.283Z" fill="#2A5EBC"/>
<path d="M24.079 211.137C25.5318 211.995 27.7975 210.849 29.1396 208.576C30.4817 206.304 30.3919 203.766 28.9391 202.908C27.4863 202.05 25.2206 203.197 23.8785 205.469C22.5364 207.742 22.6262 210.279 24.079 211.137Z" fill="#2A5EBC"/>
<path d="M205.854 175.313C206.929 176.847 209.951 176.583 212.603 174.723C215.255 172.864 216.533 170.113 215.458 168.579C214.383 167.046 211.361 167.31 208.709 169.169C206.057 171.029 204.779 173.779 205.854 175.313Z" fill="#2A5EBC"/>
<path d="M199.597 182.111C201.043 182.965 203.299 181.823 204.635 179.561C205.971 177.298 205.882 174.772 204.436 173.918C202.99 173.064 200.734 174.205 199.398 176.468C198.062 178.73 198.151 181.257 199.597 182.111Z" fill="#2A5EBC"/>
<path d="M368.403 109.369C369.436 110.843 372.336 110.591 374.881 108.807C377.425 107.023 378.651 104.382 377.618 102.909C376.585 101.436 373.684 101.687 371.14 103.471C368.596 105.255 367.37 107.896 368.403 109.369Z" fill="#2A5EBC"/>
<path d="M361.883 116.391C363.359 117.263 365.662 116.097 367.025 113.788C368.389 111.479 368.298 108.9 366.822 108.029C365.346 107.157 363.044 108.322 361.68 110.631C360.316 112.94 360.407 115.519 361.883 116.391Z" fill="#2A5EBC"/>
<path d="M216.411 216.337C218.79 218.591 221.887 219.186 223.326 217.666C224.766 216.146 224.004 213.086 221.624 210.832C219.244 208.578 216.148 207.983 214.708 209.503C213.269 211.023 214.031 214.083 216.411 216.337Z" fill="#2A5EBC"/>
<path d="M221.984 192.064C225.735 193.907 229.964 192.982 231.43 189.998C232.896 187.015 231.043 183.102 227.292 181.259C223.541 179.416 219.312 180.341 217.846 183.324C216.38 186.308 218.233 190.221 221.984 192.064Z" fill="#2A5EBC"/>
<path d="M195.313 221C196.104 222.858 198.826 223.479 201.394 222.387C203.961 221.294 205.401 218.901 204.61 217.043C203.819 215.184 201.096 214.563 198.529 215.656C195.962 216.748 194.522 219.141 195.313 221Z" fill="#2A5EBC"/>
<path d="M153.309 278.652C153.431 282.59 155.612 285.718 158.18 285.638C160.749 285.558 162.732 282.302 162.61 278.364C162.488 274.427 160.307 271.299 157.739 271.379C155.17 271.458 153.187 274.715 153.309 278.652Z" fill="#2A5EBC"/>
<path d="M414.584 90.8296C415.411 92.4142 418.302 92.5396 421.039 91.1096C423.776 89.6796 425.323 87.2358 424.496 85.6511C423.668 84.0665 420.778 83.9411 418.041 85.3711C415.303 86.8011 413.756 89.2449 414.584 90.8296Z" fill="#2A5EBC"/>
<path d="M199.766 296.419C200.096 298.212 201.256 299.501 202.356 299.298C203.456 299.096 204.08 297.478 203.749 295.686C203.419 293.893 202.26 292.604 201.16 292.807C200.06 293.009 199.436 294.627 199.766 296.419Z" fill="#2A5EBC"/>
<path d="M175.816 293.458C177.105 293.923 178.785 292.539 179.57 290.366C180.354 288.193 179.945 286.054 178.657 285.589C177.368 285.124 175.688 286.508 174.903 288.682C174.119 290.855 174.528 292.993 175.816 293.458Z" fill="#2A5EBC"/>
<path d="M216.438 297.359C218.281 297.936 220.618 295.717 221.658 292.401C222.698 289.085 222.047 285.929 220.205 285.351C218.362 284.773 216.025 286.992 214.985 290.308C213.945 293.624 214.596 296.781 216.438 297.359Z" fill="#2A5EBC"/>
<path d="M213.376 317.091C215.38 318.423 217.787 318.328 218.751 316.878C219.715 315.427 218.871 313.172 216.867 311.839C214.862 310.506 212.456 310.602 211.492 312.052C210.528 313.502 211.371 315.758 213.376 317.091Z" fill="#2A5EBC"/>
<path d="M180.853 283.886C182.155 284.904 184.503 284.076 186.098 282.036C187.692 279.997 187.93 277.518 186.628 276.501C185.327 275.483 182.979 276.311 181.384 278.35C179.789 280.39 179.551 282.868 180.853 283.886Z" fill="#2A5EBC"/>
<path d="M315.548 201.316C317.649 202.713 320.172 202.612 321.184 201.091C322.195 199.57 321.311 197.204 319.21 195.807C317.109 194.411 314.586 194.511 313.575 196.032C312.563 197.554 313.447 199.919 315.548 201.316Z" fill="#2A5EBC"/>
<path d="M303.945 209.249C304.714 212.003 308.426 213.374 312.235 212.31C316.044 211.246 318.508 208.151 317.739 205.396C316.97 202.642 313.258 201.271 309.449 202.335C305.64 203.399 303.175 206.495 303.945 209.249Z" fill="#2A5EBC"/>
<path d="M389.627 61.48C390.489 63.4809 393.827 63.9662 397.083 62.5638C400.338 61.1614 402.279 58.4024 401.417 56.4015C400.555 54.4005 397.217 53.9152 393.961 55.3176C390.706 56.72 388.765 59.479 389.627 61.48Z" fill="#2A5EBC"/>
<path d="M190.206 237.609C192.379 238.679 194.769 238.272 195.543 236.7C196.318 235.127 195.184 232.984 193.011 231.914C190.838 230.843 188.448 231.25 187.674 232.823C186.899 234.396 188.033 236.538 190.206 237.609Z" fill="#2A5EBC"/>
<path d="M181.846 230.724C182.504 232.252 185.055 232.622 187.543 231.55C190.031 230.479 191.514 228.371 190.856 226.843C190.197 225.314 187.647 224.944 185.159 226.016C182.671 227.088 181.188 229.195 181.846 230.724Z" fill="#2A5EBC"/>
<path d="M95.2138 72.201C97.3811 73.2658 99.7634 72.8564 100.535 71.2865C101.306 69.7165 100.174 67.5807 98.007 66.5158C95.8397 65.451 93.4574 65.8605 92.6861 67.4304C91.9148 69.0003 93.0465 71.1362 95.2138 72.201Z" fill="#2A5EBC"/>
<path d="M86.4899 65.4729C87.1543 67.0154 89.7299 67.3883 92.2427 66.3059C94.7554 65.2235 96.2538 63.0956 95.5893 61.5531C94.9249 60.0106 92.3493 59.6377 89.8365 60.7201C87.3238 61.8025 85.8254 63.9304 86.4899 65.4729Z" fill="#2A5EBC"/>
<path d="M254.424 321.083C257.472 323.109 260.953 323.234 262.198 321.362C263.442 319.49 261.98 316.329 258.931 314.302C255.883 312.275 252.402 312.15 251.157 314.023C249.913 315.895 251.375 319.056 254.424 321.083Z" fill="#2A5EBC"/>
<path d="M268.48 272.967C269.453 274.829 272.85 274.976 276.067 273.296C279.285 271.615 281.104 268.742 280.131 266.88C279.158 265.017 275.761 264.87 272.544 266.551C269.326 268.232 267.507 271.104 268.48 272.967Z" fill="#2A5EBC"/>
<path d="M231.044 295.676C233.781 296.664 237.35 293.723 239.016 289.108C240.682 284.492 239.814 279.95 237.076 278.962C234.339 277.974 230.77 280.915 229.104 285.53C227.438 290.146 228.306 294.688 231.044 295.676Z" fill="#2A5EBC"/>
<path d="M245.443 266.319C247.109 268.23 251.169 267.417 254.512 264.503C257.856 261.589 259.216 257.678 257.55 255.767C255.885 253.856 251.825 254.669 248.481 257.583C245.138 260.497 243.778 264.408 245.443 266.319Z" fill="#2A5EBC"/>
<path d="M278.325 287.126C280.444 287.79 283.132 285.237 284.329 281.423C285.525 277.609 284.777 273.978 282.657 273.313C280.538 272.648 277.85 275.201 276.653 279.015C275.457 282.83 276.205 286.461 278.325 287.126Z" fill="#2A5EBC"/>
<path d="M335.473 22.4297C336.383 24.1722 339.562 24.3092 342.574 22.7359C345.586 21.1625 347.289 18.4746 346.379 16.7322C345.468 14.9897 342.289 14.8527 339.277 16.426C336.266 17.9994 334.563 20.6873 335.473 22.4297Z" fill="#2A5EBC"/>
<path d="M344.797 37.3336C347.079 38.0494 349.974 35.2951 351.265 31.1817C352.555 27.0683 351.751 23.1535 349.469 22.4377C347.187 21.7219 344.291 24.4762 343.001 28.5896C341.711 32.703 342.515 36.6178 344.797 37.3336Z" fill="#2A5EBC"/>
<path d="M258.363 310.741C262.188 313.284 266.783 313.099 268.625 310.328C270.468 307.556 268.86 303.248 265.035 300.705C261.21 298.162 256.615 298.347 254.773 301.119C252.93 303.89 254.538 308.198 258.363 310.741Z" fill="#2A5EBC"/>
<path d="M237.8 272.295C239.029 273.256 241.244 272.475 242.748 270.551C244.252 268.628 244.476 266.29 243.247 265.329C242.019 264.368 239.804 265.149 238.299 267.072C236.795 268.996 236.572 271.334 237.8 272.295Z" fill="#2A5EBC"/>
<path d="M170.565 265.882C171.796 266.845 174.016 266.064 175.522 264.137C177.029 262.21 177.252 259.868 176.02 258.905C174.789 257.942 172.569 258.723 171.063 260.649C169.556 262.576 169.333 264.919 170.565 265.882Z" fill="#2A5EBC"/>
<path d="M229.242 310.174C231.343 312.759 234.388 313.765 236.043 312.42C237.697 311.075 237.335 307.889 235.233 305.303C233.132 302.718 230.087 301.712 228.432 303.057C226.778 304.402 227.14 307.588 229.242 310.174Z" fill="#2A5EBC"/>
<path d="M244.888 298.22C245.542 300.561 248.695 301.726 251.93 300.822C255.165 299.918 257.258 297.288 256.604 294.948C255.95 292.607 252.798 291.442 249.562 292.346C246.327 293.249 244.234 295.879 244.888 298.22Z" fill="#2A5EBC"/>
<path d="M88.8079 91.3036C92.6526 93.8595 97.2699 93.6743 99.1209 90.8899C100.972 88.1054 99.3558 83.7763 95.5111 81.2204C91.6664 78.6645 87.0491 78.8498 85.1981 81.6342C83.3471 84.4186 84.9632 88.7478 88.8079 91.3036Z" fill="#2A5EBC"/>
<path d="M74.9635 78.869C75.661 81.3662 79.0243 82.6092 82.4757 81.6452C85.9271 80.6813 88.1596 77.8755 87.4621 75.3782C86.7647 72.881 83.4014 71.638 79.95 72.602C76.4986 73.5659 74.266 76.3717 74.9635 78.869Z" fill="#2A5EBC"/>
<path d="M174.549 219.694C178.261 222.162 182.719 221.983 184.506 219.296C186.293 216.608 184.732 212.428 181.019 209.96C177.307 207.492 172.849 207.67 171.062 210.358C169.275 213.046 170.836 217.225 174.549 219.694Z" fill="#2A5EBC"/>
<path d="M160.694 207.405C161.379 209.858 164.681 211.079 168.069 210.132C171.457 209.186 173.648 206.431 172.963 203.978C172.278 201.526 168.976 200.305 165.588 201.251C162.2 202.197 160.009 204.953 160.694 207.405Z" fill="#2A5EBC"/>
<path d="M283.843 211.867C287.61 214.371 292.135 214.189 293.95 211.459C295.764 208.73 294.181 204.487 290.414 201.982C286.647 199.478 282.122 199.66 280.307 202.39C278.492 205.119 280.075 209.362 283.843 211.867Z" fill="#2A5EBC"/>
<path d="M270.465 199.39C271.102 201.671 274.175 202.806 277.328 201.925C280.481 201.045 282.521 198.482 281.884 196.201C281.247 193.92 278.174 192.784 275.021 193.665C271.868 194.546 269.828 197.109 270.465 199.39Z" fill="#2A5EBC"/>
<path d="M253.828 224.104C257.672 226.66 262.29 226.475 264.141 223.691C265.992 220.906 264.376 216.577 260.531 214.021C256.686 211.465 252.069 211.65 250.218 214.435C248.367 217.219 249.983 221.548 253.828 224.104Z" fill="#2A5EBC"/>
<path d="M240.467 211.535C241.109 213.835 244.207 214.979 247.387 214.091C250.566 213.204 252.623 210.619 251.98 208.32C251.338 206.02 248.24 204.876 245.061 205.764C241.881 206.652 239.825 209.236 240.467 211.535Z" fill="#2A5EBC"/>
<path d="M287.734 123.801C290.467 125.617 293.748 125.486 295.064 123.507C296.379 121.529 295.23 118.452 292.497 116.635C289.765 114.818 286.483 114.95 285.167 116.928C283.852 118.907 285.001 121.984 287.734 123.801Z" fill="#2A5EBC"/>
<path d="M329.72 152.896C332.453 154.712 335.734 154.581 337.05 152.602C338.365 150.624 337.216 147.547 334.483 145.73C331.751 143.913 328.469 144.044 327.153 146.023C325.838 148.002 326.987 151.079 329.72 152.896Z" fill="#2A5EBC"/>
<path d="M255.093 273.822C254.824 276.522 256.033 278.852 257.793 279.027C259.553 279.203 261.197 277.156 261.466 274.457C261.735 271.757 260.526 269.427 258.766 269.252C257.006 269.077 255.362 271.123 255.093 273.822Z" fill="#2A5EBC"/>
<path d="M311.625 253.49C313.625 254.475 315.824 254.1 316.537 252.653C317.25 251.205 316.207 249.233 314.208 248.248C312.208 247.263 310.009 247.638 309.296 249.085C308.583 250.533 309.626 252.505 311.625 253.49Z" fill="#2A5EBC"/>
<path d="M168.35 200.48C169.862 201.374 172.223 200.177 173.622 197.808C175.021 195.439 174.929 192.794 173.417 191.901C171.904 191.007 169.543 192.204 168.144 194.573C166.745 196.942 166.837 199.587 168.35 200.48Z" fill="#2A5EBC"/>
<path d="M178.209 182.613C179.013 184.153 181.826 184.273 184.491 182.881C187.156 181.488 188.664 179.111 187.86 177.571C187.055 176.031 184.242 175.911 181.577 177.304C178.912 178.696 177.404 181.073 178.209 182.613Z" fill="#2A5EBC"/>
<path d="M165.128 181.178C166.543 182.285 169.094 181.385 170.827 179.168C172.56 176.952 172.819 174.259 171.404 173.153C169.99 172.047 167.438 172.947 165.705 175.163C163.972 177.379 163.714 180.072 165.128 181.178Z" fill="#2A5EBC"/>
<path d="M81.1428 215.803C85.7032 218.044 90.8458 216.918 92.629 213.288C94.4123 209.659 92.1609 204.9 87.6005 202.66C83.0401 200.419 77.8975 201.545 76.1143 205.175C74.3311 208.804 76.5824 213.563 81.1428 215.803Z" fill="#2A5EBC"/>
<path d="M87.0119 227.716C88.3258 228.744 90.6953 227.909 92.3044 225.851C93.9135 223.793 94.1528 221.292 92.839 220.265C91.5251 219.237 89.1556 220.073 87.5465 222.13C85.9374 224.188 85.698 226.689 87.0119 227.716Z" fill="#2A5EBC"/>
<path d="M148.653 180.343C148.39 182.981 149.573 185.258 151.294 185.43C153.015 185.601 154.624 183.602 154.886 180.964C155.149 178.326 153.966 176.049 152.245 175.877C150.524 175.706 148.915 177.705 148.653 180.343Z" fill="#2A5EBC"/>
<path d="M333.24 196.945C334.229 198.355 337.005 198.113 339.442 196.404C341.879 194.696 343.053 192.168 342.064 190.758C341.076 189.348 338.299 189.59 335.862 191.298C333.425 193.007 332.252 195.535 333.24 196.945Z" fill="#2A5EBC"/>
<path d="M295.694 199.427C296.709 200.875 299.564 200.624 302.07 198.867C304.577 197.11 305.786 194.511 304.77 193.063C303.755 191.615 300.9 191.866 298.394 193.623C295.887 195.38 294.679 197.979 295.694 199.427Z" fill="#2A5EBC"/>
<path d="M177.083 150.493C176.469 153.989 177.544 157.098 179.484 157.439C181.424 157.78 183.495 155.223 184.109 151.728C184.723 148.233 183.648 145.123 181.708 144.782C179.768 144.441 177.697 146.998 177.083 150.493Z" fill="#2A5EBC"/>
<path d="M326.709 197.84C328.198 198.72 330.521 197.545 331.896 195.216C333.272 192.887 333.179 190.285 331.69 189.406C330.201 188.526 327.878 189.701 326.502 192.03C325.127 194.36 325.219 196.961 326.709 197.84Z" fill="#2A5EBC"/>
<path d="M295.909 181.855C296.033 185.87 298.257 189.059 300.875 188.978C303.494 188.897 305.516 185.577 305.391 181.562C305.267 177.547 303.043 174.358 300.425 174.439C297.806 174.52 295.784 177.84 295.909 181.855Z" fill="#2A5EBC"/>
<path d="M312.301 273.947C315.978 276.391 320.177 276.541 321.679 274.282C323.18 272.023 321.417 268.21 317.74 265.766C314.063 263.321 309.865 263.171 308.363 265.43C306.861 267.689 308.624 271.502 312.301 273.947Z" fill="#2A5EBC"/>
<path d="M329.337 214.313C330.113 215.799 332.825 215.915 335.394 214.572C337.963 213.23 339.417 210.938 338.641 209.453C337.865 207.968 335.153 207.852 332.584 209.194C330.015 210.536 328.561 212.828 329.337 214.313Z" fill="#2A5EBC"/>
<path d="M286.807 101.157C287.133 102.926 288.28 104.199 289.368 103.998C290.457 103.798 291.075 102.2 290.749 100.431C290.423 98.661 289.276 97.3889 288.188 97.5893C287.1 97.7898 286.481 99.3869 286.807 101.157Z" fill="#2A5EBC"/>
<path d="M324.869 242.852C326.845 243.472 329.351 241.089 330.468 237.529C331.584 233.97 330.888 230.582 328.913 229.962C326.937 229.342 324.431 231.726 323.314 235.285C322.198 238.845 322.894 242.233 324.869 242.852Z" fill="#2A5EBC"/>
<path d="M325.066 248.59C327.012 249.884 329.351 249.789 330.289 248.378C331.228 246.966 330.41 244.773 328.464 243.479C326.517 242.185 324.179 242.28 323.24 243.692C322.302 245.103 323.119 247.296 325.066 248.59Z" fill="#2A5EBC"/>
<path d="M291.457 222.265C292.798 223.314 295.217 222.462 296.86 220.362C298.502 218.261 298.746 215.708 297.405 214.659C296.064 213.61 293.645 214.463 292.002 216.563C290.36 218.664 290.116 221.217 291.457 222.265Z" fill="#2A5EBC"/>
<path d="M376.803 133.882C378.212 134.983 380.751 134.089 382.474 131.885C384.198 129.681 384.453 127.002 383.045 125.9C381.636 124.799 379.098 125.693 377.374 127.897C375.65 130.101 375.395 132.78 376.803 133.882Z" fill="#2A5EBC"/>
<path d="M285.549 258.287C287.895 261.172 291.293 262.295 293.14 260.794C294.987 259.293 294.583 255.736 292.237 252.85C289.891 249.965 286.493 248.842 284.646 250.343C282.799 251.844 283.203 255.401 285.549 258.287Z" fill="#2A5EBC"/>
<path d="M295.971 275.092C298.253 276.609 301.081 276.368 302.287 274.554C303.493 272.739 302.621 270.039 300.339 268.522C298.058 267.005 295.23 267.246 294.024 269.061C292.818 270.875 293.69 273.576 295.971 275.092Z" fill="#2A5EBC"/>
<path d="M311.95 222.098C311.427 227.354 313.781 231.892 317.208 232.233C320.635 232.574 323.838 228.59 324.361 223.333C324.885 218.077 322.53 213.539 319.103 213.198C315.676 212.857 312.473 216.841 311.95 222.098Z" fill="#2A5EBC"/>
<path d="M338.41 231.919C339.557 232.333 341.051 231.104 341.747 229.175C342.443 227.246 342.078 225.346 340.931 224.932C339.785 224.519 338.291 225.747 337.595 227.676C336.898 229.606 337.263 231.505 338.41 231.919Z" fill="#2A5EBC"/>
<path d="M341.448 214.244C342.798 215.3 345.234 214.441 346.888 212.325C348.543 210.21 348.789 207.638 347.439 206.582C346.088 205.526 343.652 206.385 341.998 208.501C340.344 210.617 340.097 213.188 341.448 214.244Z" fill="#2A5EBC"/>
<path d="M341.619 243.876C343.681 246.414 346.668 247.402 348.29 246.084C349.911 244.766 349.554 241.641 347.491 239.103C345.429 236.566 342.442 235.577 340.82 236.895C339.199 238.213 339.556 241.339 341.619 243.876Z" fill="#2A5EBC"/>
<path d="M258.582 255.578C260.658 256.958 263.229 256.739 264.326 255.089C265.423 253.439 264.63 250.983 262.554 249.603C260.479 248.223 257.907 248.442 256.81 250.092C255.714 251.742 256.507 254.198 258.582 255.578Z" fill="#2A5EBC"/>
<path d="M342.968 232.012C343.702 234.64 347.24 235.948 350.87 234.934C354.501 233.92 356.849 230.968 356.115 228.34C355.381 225.712 351.843 224.404 348.213 225.418C344.582 226.432 342.234 229.384 342.968 232.012Z" fill="#2A5EBC"/>
<path d="M158.004 109.125C159.964 110.428 162.318 110.332 163.263 108.911C164.208 107.489 163.385 105.281 161.426 103.979C159.466 102.676 157.112 102.772 156.167 104.194C155.223 105.615 156.045 107.823 158.004 109.125Z" fill="#2A5EBC"/>
<path d="M178.44 89.0513C179.656 89.4901 181.241 88.1845 181.981 86.1352C182.721 84.0859 182.335 82.0688 181.119 81.63C179.903 81.1913 178.318 82.4969 177.578 84.5462C176.839 86.5955 177.225 88.6125 178.44 89.0513Z" fill="#2A5EBC"/>
<path d="M181.708 100.784C183.773 103.325 186.764 104.314 188.389 102.993C190.014 101.673 189.657 98.5429 187.592 96.0024C185.527 93.4619 182.536 92.4729 180.911 93.7934C179.286 95.1139 179.643 98.2439 181.708 100.784Z" fill="#2A5EBC"/>
<path d="M182.781 88.989C183.545 91.7248 187.231 93.086 191.014 92.0294C194.798 90.9729 197.245 87.8985 196.481 85.1628C195.717 82.427 192.031 81.0658 188.247 82.1224C184.464 83.179 182.017 86.2533 182.781 88.989Z" fill="#2A5EBC"/>
<path d="M320.621 108.823C323.126 109.97 326.442 108.094 328.028 104.631C329.613 101.169 328.868 97.4326 326.363 96.2854C323.858 95.1382 320.541 97.0148 318.956 100.477C317.371 103.939 318.116 107.676 320.621 108.823Z" fill="#2A5EBC"/>
<path d="M278.055 163.355C279.271 163.793 280.856 162.488 281.596 160.438C282.336 158.389 281.95 156.372 280.734 155.933C279.518 155.494 277.933 156.8 277.193 158.849C276.454 160.899 276.84 162.916 278.055 163.355Z" fill="#2A5EBC"/>
<path d="M275.857 151.803C278.022 154.467 281.158 155.504 282.86 154.12C284.563 152.736 284.188 149.455 282.023 146.792C279.858 144.128 276.723 143.091 275.02 144.475C273.317 145.858 273.692 149.14 275.857 151.803Z" fill="#2A5EBC"/>
<path d="M276.286 140.535C277.065 143.323 280.82 144.71 284.674 143.634C288.528 142.558 291.021 139.425 290.242 136.637C289.464 133.849 285.708 132.462 281.854 133.538C278 134.614 275.507 137.747 276.286 140.535Z" fill="#2A5EBC"/>
<path d="M306.556 148.936C307.324 151.686 311.029 153.056 314.831 151.994C318.632 150.932 321.092 147.841 320.323 145.091C319.555 142.34 315.85 140.971 312.049 142.033C308.247 143.094 305.788 146.185 306.556 148.936Z" fill="#2A5EBC"/>
<path d="M366.752 203.38C366.468 206.226 367.743 208.682 369.599 208.867C371.455 209.052 373.19 206.895 373.473 204.049C373.756 201.203 372.481 198.747 370.625 198.562C368.769 198.377 367.035 200.534 366.752 203.38Z" fill="#2A5EBC"/>
<path d="M237.402 40.7671C239.177 41.0878 241.038 39.0078 241.56 36.1213C242.082 33.2347 241.066 30.6346 239.291 30.3139C237.517 29.9931 235.655 32.0731 235.133 34.9597C234.612 37.8463 235.627 40.4463 237.402 40.7671Z" fill="#2A5EBC"/>
<path d="M249.598 86.77C250.331 88.5105 253.221 88.9548 256.053 87.7624C258.884 86.5699 260.586 84.1924 259.853 82.4519C259.12 80.7114 256.23 80.2671 253.399 81.4595C250.567 82.6519 248.865 85.0295 249.598 86.77Z" fill="#2A5EBC"/>
<path d="M249.442 111.467C249.005 115.65 250.613 119.247 253.034 119.5C255.455 119.753 257.772 116.566 258.209 112.383C258.646 108.199 257.038 104.602 254.617 104.349C252.196 104.096 249.879 107.283 249.442 111.467Z" fill="#2A5EBC"/>
<path d="M310.314 164.146C310.988 165.747 313.325 166.292 315.533 165.362C317.74 164.432 318.983 162.381 318.309 160.779C317.635 159.178 315.298 158.633 313.091 159.563C310.883 160.492 309.64 162.544 310.314 164.146Z" fill="#2A5EBC"/>
<path d="M266.846 79.1638C267.663 81.6164 269.596 83.1812 271.164 82.6589C272.732 82.1367 273.34 79.7251 272.523 77.2726C271.706 74.82 269.773 73.2552 268.205 73.7775C266.637 74.2997 266.029 76.7113 266.846 79.1638Z" fill="#2A5EBC"/>
<path d="M205.235 53.4573C206.043 55.3761 208.652 56.1086 211.063 55.0934C213.474 54.0782 214.774 51.6997 213.966 49.7809C213.158 47.8621 210.549 47.1296 208.138 48.1448C205.727 49.16 204.427 51.5385 205.235 53.4573Z" fill="#2A5EBC"/>
<path d="M180.353 114.656C181.036 116.285 183.743 116.702 186.397 115.587C189.052 114.473 190.65 112.25 189.966 110.621C189.283 108.993 186.577 108.576 183.922 109.69C181.267 110.805 179.669 113.028 180.353 114.656Z" fill="#2A5EBC"/>
<path d="M182.792 165.655C185.213 168.64 188.517 169.971 190.174 168.628C191.83 167.285 191.211 163.777 188.79 160.792C186.37 157.807 183.066 156.476 181.409 157.819C179.753 159.161 180.372 162.67 182.792 165.655Z" fill="#2A5EBC"/>
<path d="M215.829 119.965C219.416 121.496 223.01 121.133 223.854 119.154C224.699 117.176 222.475 114.33 218.888 112.799C215.3 111.267 211.707 111.63 210.862 113.609C210.018 115.588 212.241 118.433 215.829 119.965Z" fill="#2A5EBC"/>
<path d="M335.369 170.262C336.655 173.326 341.126 174.371 345.356 172.596C349.585 170.821 351.971 166.897 350.685 163.833C349.399 160.769 344.927 159.724 340.698 161.499C336.468 163.274 334.082 167.198 335.369 170.262Z" fill="#2A5EBC"/>
<path d="M203.46 102.673C203.669 104.819 206.557 106.294 209.912 105.967C213.267 105.641 215.818 103.637 215.609 101.492C215.4 99.3466 212.512 97.8719 209.157 98.1982C205.802 98.5244 203.251 100.528 203.46 102.673Z" fill="#2A5EBC"/>
<path d="M204.731 115.884C206.451 116.441 208.468 114.967 209.237 112.593C210.006 110.218 209.236 107.842 207.516 107.285C205.797 106.728 203.78 108.202 203.011 110.576C202.242 112.951 203.012 115.327 204.731 115.884Z" fill="#2A5EBC"/>
<path d="M327.77 169.905C329.688 170.526 331.939 168.881 332.797 166.23C333.656 163.579 332.797 160.927 330.879 160.306C328.961 159.684 326.71 161.33 325.851 163.98C324.993 166.631 325.852 169.284 327.77 169.905Z" fill="#2A5EBC"/>
<path d="M370.116 192.769C372.056 193.398 374.333 191.734 375.201 189.054C376.069 186.374 375.2 183.692 373.26 183.064C371.319 182.435 369.043 184.098 368.175 186.779C367.307 189.459 368.176 192.141 370.116 192.769Z" fill="#2A5EBC"/>
<path d="M180.603 48.4123C181.608 50.8068 185.586 51.4203 189.487 49.7825C193.389 48.1448 195.737 44.876 194.732 42.4815C193.727 40.087 189.749 39.4735 185.848 41.1112C181.946 42.749 179.598 46.0178 180.603 48.4123Z" fill="#2A5EBC"/>
<path d="M253.458 142.179C255.129 142.578 257.043 140.558 257.733 137.667C258.423 134.776 257.628 132.109 255.957 131.71C254.285 131.311 252.371 133.331 251.681 136.222C250.991 139.113 251.787 141.78 253.458 142.179Z" fill="#2A5EBC"/>
<path d="M260.468 171.059C262.831 172.454 265.386 172.502 266.175 171.166C266.964 169.83 265.688 167.615 263.326 166.22C260.963 164.825 258.409 164.777 257.619 166.113C256.83 167.449 258.106 169.664 260.468 171.059Z" fill="#2A5EBC"/>
<path d="M335.818 67.7095C338.795 69.3213 342.667 67.9353 344.465 64.6137C346.263 61.2921 345.306 57.2927 342.328 55.6809C339.35 54.0691 335.479 55.4551 333.681 58.7767C331.883 62.0983 332.84 66.0977 335.818 67.7095Z" fill="#2A5EBC"/>
<path d="M260.753 162.441C262.808 165.784 265.978 167.569 267.834 166.429C269.69 165.288 269.53 161.653 267.475 158.31C265.42 154.967 262.25 153.181 260.394 154.322C258.537 155.463 258.698 159.098 260.753 162.441Z" fill="#2A5EBC"/>
<path d="M241.134 81.5599C243.211 84.9392 246.415 86.7441 248.291 85.5911C250.167 84.4382 250.004 80.764 247.927 77.3846C245.851 74.0053 242.646 72.2004 240.77 73.3534C238.894 74.5063 239.057 78.1805 241.134 81.5599Z" fill="#2A5EBC"/>
<path d="M279.733 173.632C280.192 175.3 282.43 176.139 284.732 175.506C287.034 174.873 288.529 173.008 288.07 171.34C287.612 169.672 285.373 168.833 283.071 169.466C280.769 170.099 279.274 171.965 279.733 173.632Z" fill="#2A5EBC"/>
<path d="M243.379 158.94C245.372 161.054 248.107 161.714 249.487 160.413C250.866 159.113 250.369 156.344 248.375 154.229C246.381 152.115 243.646 151.455 242.267 152.756C240.887 154.057 241.385 156.825 243.379 158.94Z" fill="#2A5EBC"/>
<path d="M298.578 172.486C300.259 173.022 302.331 171.236 303.205 168.497C304.079 165.758 303.424 163.102 301.743 162.566C300.062 162.03 297.991 163.816 297.117 166.555C296.243 169.294 296.897 171.949 298.578 172.486Z" fill="#2A5EBC"/>
<path d="M314.349 182.774C316.112 183.336 318.283 181.464 319.199 178.592C320.116 175.72 319.43 172.936 317.668 172.374C315.905 171.811 313.734 173.684 312.818 176.556C311.901 179.428 312.587 182.212 314.349 182.774Z" fill="#2A5EBC"/>
<path d="M138.916 158.449C139.036 162.329 141.187 165.41 143.721 165.332C146.254 165.253 148.211 162.045 148.091 158.165C147.97 154.285 145.819 151.204 143.286 151.283C140.752 151.361 138.796 154.57 138.916 158.449Z" fill="#2A5EBC"/>
<path d="M193.502 195.369C193.617 199.59 195.944 202.951 198.699 202.875C201.454 202.8 203.593 199.317 203.478 195.095C203.362 190.874 201.035 187.513 198.28 187.589C195.525 187.664 193.386 191.147 193.502 195.369Z" fill="#2A5EBC"/>
<path d="M204.779 206.272C206.394 206.787 208.382 205.077 209.22 202.452C210.057 199.827 209.427 197.281 207.812 196.766C206.197 196.251 204.209 197.961 203.372 200.586C202.534 203.211 203.164 205.757 204.779 206.272Z" fill="#2A5EBC"/>
<path d="M151.327 75.6023C151.451 79.6289 153.682 82.8271 156.308 82.7457C158.934 82.6644 160.962 79.3342 160.838 75.3076C160.713 71.2811 158.483 68.0828 155.856 68.1642C153.23 68.2456 151.202 71.5758 151.327 75.6023Z" fill="#2A5EBC"/>
<path d="M155.845 67.0778C157.508 67.6083 159.556 65.8447 160.419 63.1386C161.282 60.4325 160.634 57.8088 158.972 57.2783C157.309 56.7478 155.261 58.5114 154.398 61.2175C153.534 63.9236 154.182 66.5473 155.845 67.0778Z" fill="#2A5EBC"/>
<path d="M10.8896 178.998C12.7664 180.112 15.673 178.682 17.3818 175.803C19.0905 172.925 18.9543 169.688 17.0775 168.574C15.2008 167.46 12.2941 168.89 10.5853 171.769C8.8766 174.647 9.01279 177.884 10.8896 178.998Z" fill="#2A5EBC"/>
<path d="M17.5751 168.407C18.4875 169.5 20.6676 169.185 22.4443 167.702C24.2211 166.219 24.9218 164.131 24.0094 163.038C23.0969 161.944 20.9169 162.26 19.1401 163.742C17.3634 165.225 16.6627 167.314 17.5751 168.407Z" fill="#2A5EBC"/>
<path d="M286.222 97.751C287.991 98.1733 290.017 96.0379 290.746 92.9814C291.476 89.925 290.633 87.1049 288.864 86.6826C287.095 86.2603 285.069 88.3957 284.34 91.4522C283.61 94.5086 284.453 97.3287 286.222 97.751Z" fill="#2A5EBC"/>
<path d="M302.169 102.759C304.078 105.864 307.023 107.523 308.748 106.463C310.472 105.404 310.322 102.027 308.414 98.9211C306.505 95.8153 303.56 94.1567 301.835 95.2165C300.111 96.2762 300.261 99.653 302.169 102.759Z" fill="#2A5EBC"/>
<path d="M254.648 125.984C255.12 128.419 256.766 130.148 258.323 129.846C259.881 129.544 260.761 127.325 260.289 124.89C259.816 122.455 258.171 120.726 256.613 121.028C255.056 121.33 254.176 123.549 254.648 125.984Z" fill="#2A5EBC"/>
<path d="M285.152 154.28C285.076 156.538 287.878 158.465 291.409 158.582C294.941 158.7 297.864 156.964 297.939 154.705C298.014 152.446 295.213 150.52 291.681 150.403C288.15 150.285 285.227 152.021 285.152 154.28Z" fill="#2A5EBC"/>
<path d="M100.863 139.502C101.984 139.906 103.446 138.703 104.128 136.814C104.81 134.924 104.454 133.065 103.332 132.66C102.211 132.256 100.75 133.459 100.068 135.348C99.386 137.237 99.7422 139.097 100.863 139.502Z" fill="#2A5EBC"/>
<path d="M98.4844 128.297C100.698 131.021 103.905 132.081 105.647 130.665C107.388 129.25 107.006 125.894 104.792 123.17C102.578 120.447 99.3712 119.386 97.6295 120.802C95.8877 122.218 96.2705 125.573 98.4844 128.297Z" fill="#2A5EBC"/>
<path d="M107.896 130.694C107.822 132.933 110.599 134.843 114.099 134.959C117.6 135.076 120.498 133.355 120.572 131.116C120.647 128.876 117.869 126.966 114.369 126.85C110.869 126.733 107.971 128.454 107.896 130.694Z" fill="#2A5EBC"/>
<path d="M289.054 246.684C290.263 247.12 291.839 245.821 292.574 243.783C293.31 241.744 292.927 239.738 291.718 239.302C290.51 238.866 288.934 240.165 288.198 242.203C287.462 244.242 287.846 246.248 289.054 246.684Z" fill="#2A5EBC"/>
<path d="M286.711 235.267C288.968 238.045 292.24 239.126 294.018 237.681C295.795 236.236 295.406 232.812 293.148 230.035C290.891 227.257 287.619 226.177 285.841 227.622C284.064 229.067 284.453 232.49 286.711 235.267Z" fill="#2A5EBC"/>
<path d="M296.167 237.632C296.092 239.879 298.879 241.795 302.391 241.912C305.903 242.029 308.81 240.302 308.885 238.055C308.96 235.808 306.173 233.891 302.661 233.775C299.15 233.658 296.242 235.385 296.167 237.632Z" fill="#2A5EBC"/>
<path d="M80.8397 156.401C82.9364 158.981 85.9726 159.986 87.6212 158.646C89.2699 157.306 88.9066 154.128 86.8099 151.549C84.7132 148.969 81.677 147.964 80.0284 149.304C78.3798 150.644 78.743 153.822 80.8397 156.401Z" fill="#2A5EBC"/>
<path d="M81.6133 145.089C82.343 147.702 85.8624 149.002 89.4741 147.993C93.0858 146.985 95.422 144.049 94.6923 141.436C93.9626 138.823 90.4432 137.523 86.8315 138.532C83.2199 139.54 80.8836 142.476 81.6133 145.089Z" fill="#2A5EBC"/>
<path d="M70.0319 163.181C71.9812 166.353 74.9887 168.047 76.7493 166.965C78.5098 165.883 78.3568 162.434 76.4075 159.263C74.4582 156.091 71.4508 154.397 69.6902 155.479C67.9297 156.561 68.0826 160.009 70.0319 163.181Z" fill="#2A5EBC"/>
<path d="M89.9609 158.932C89.8849 161.214 92.7174 163.16 96.2873 163.279C99.8571 163.398 102.813 161.644 102.889 159.362C102.964 157.08 100.132 155.134 96.5622 155.015C92.9923 154.897 90.0368 156.65 89.9609 158.932Z" fill="#2A5EBC"/>
<path d="M297.08 136.344C299.523 137.504 302.804 135.707 304.407 132.33C306.01 128.952 305.329 125.274 302.885 124.114C300.442 122.954 297.161 124.751 295.558 128.129C293.955 131.506 294.636 135.184 297.08 136.344Z" fill="#2A5EBC"/>
<path d="M278.427 113.859C280.171 115.709 282.565 116.286 283.772 115.147C284.98 114.008 284.546 111.585 282.802 109.735C281.057 107.885 278.664 107.309 277.456 108.448C276.248 109.586 276.683 112.009 278.427 113.859Z" fill="#2A5EBC"/>
<path d="M365.133 41.7789C366.831 42.0859 368.613 40.0935 369.113 37.3288C369.612 34.5641 368.641 32.074 366.942 31.767C365.244 31.46 363.462 33.4524 362.962 36.2171C362.462 38.9818 363.434 41.4719 365.133 41.7789Z" fill="#2A5EBC"/>
<path d="M346.736 56.3995C347.351 57.8618 349.779 58.2352 352.158 57.2335C354.537 56.2318 355.966 54.2344 355.35 52.7721C354.735 51.3098 352.307 50.9364 349.928 51.9381C347.549 52.9398 346.12 54.9372 346.736 56.3995Z" fill="#2A5EBC"/>
<path d="M390.505 107.562C390.189 110.583 391.35 113.18 393.097 113.363C394.844 113.546 396.517 111.244 396.833 108.223C397.148 105.202 395.988 102.604 394.24 102.422C392.493 102.239 390.82 104.54 390.505 107.562Z" fill="#2A5EBC"/>
<path d="M377.073 89.9013C380.543 91.3826 384.017 91.034 384.833 89.1227C385.649 87.2114 383.497 84.4613 380.027 82.98C376.557 81.4987 373.082 81.8474 372.266 83.7586C371.451 85.6699 373.602 88.4201 377.073 89.9013Z" fill="#2A5EBC"/>
<path d="M365.025 59.9779C367.19 62.8919 370.347 64.2122 372.078 62.9269C373.808 61.6416 373.456 58.2374 371.292 55.3234C369.127 52.4094 365.97 51.0891 364.239 52.3744C362.509 53.6597 362.861 57.0639 365.025 59.9779Z" fill="#2A5EBC"/>
<path d="M361.006 88.3434C363.264 89.2088 365.879 87.8656 366.845 85.3433C367.811 82.821 366.764 80.0747 364.506 79.2093C362.247 78.3439 359.633 79.6871 358.666 82.2094C357.7 84.7317 358.747 87.478 361.006 88.3434Z" fill="#2A5EBC"/>
<path d="M378.839 102.537C381.259 105.522 384.564 106.853 386.22 105.51C387.876 104.167 387.257 100.659 384.837 97.6739C382.417 94.6889 379.112 93.3578 377.456 94.7007C375.8 96.0436 376.419 99.552 378.839 102.537Z" fill="#2A5EBC"/>
<path d="M353.917 78.9736C354.589 80.5678 356.917 81.1091 359.117 80.1825C361.318 79.2559 362.558 77.2123 361.886 75.6181C361.215 74.0238 358.887 73.4826 356.686 74.4092C354.486 75.3358 353.246 77.3793 353.917 78.9736Z" fill="#2A5EBC"/>
<path d="M288.959 65.4521C289.594 66.9607 291.798 67.4728 293.881 66.5957C295.964 65.7187 297.137 63.7847 296.502 62.276C295.867 60.7674 293.663 60.2554 291.58 61.1324C289.497 62.0094 288.324 63.9434 288.959 65.4521Z" fill="#2A5EBC"/>
<path d="M353.594 178.957C354.455 181.542 356.493 183.191 358.145 182.641C359.797 182.09 360.438 179.549 359.577 176.964C358.716 174.379 356.679 172.73 355.027 173.28C353.375 173.831 352.733 176.372 353.594 178.957Z" fill="#2A5EBC"/>
<path d="M374.556 48.6788C374.783 51.0129 377.924 52.6175 381.571 52.2628C385.219 51.9081 387.992 49.7283 387.765 47.3942C387.538 45.0601 384.397 43.4555 380.749 43.8102C377.102 44.165 374.329 46.3447 374.556 48.6788Z" fill="#2A5EBC"/>
<path d="M371.261 74.8009C374.051 75.7047 377.327 73.3096 378.576 69.4513C379.826 65.593 378.577 61.7325 375.786 60.8287C372.995 59.9249 369.72 62.3201 368.47 66.1784C367.221 70.0367 368.47 73.8971 371.261 74.8009Z" fill="#2A5EBC"/>
<path d="M399.05 101.855C402.818 104.932 407.5 105.433 409.507 102.975C411.514 100.518 410.087 96.0308 406.319 92.9541C402.551 89.8773 397.87 89.3756 395.863 91.8335C393.855 94.2913 395.283 98.778 399.05 101.855Z" fill="#2A5EBC"/>
<path d="M213.479 243.045C214.623 245.237 216.838 246.342 218.427 245.513C220.015 244.684 220.375 242.235 219.231 240.042C218.086 237.85 215.871 236.745 214.283 237.574C212.694 238.404 212.335 240.853 213.479 243.045Z" fill="#2A5EBC"/>
<path d="M208.112 233.66C210.037 236.408 212.964 237.678 214.65 236.497C216.337 235.315 216.143 232.13 214.218 229.382C212.293 226.634 209.365 225.364 207.679 226.546C205.993 227.727 206.186 230.912 208.112 233.66Z" fill="#2A5EBC"/>
<path d="M360.452 154.984C360.116 158.206 361.353 160.975 363.216 161.17C365.079 161.364 366.862 158.911 367.198 155.689C367.535 152.468 366.298 149.698 364.435 149.504C362.572 149.309 360.789 151.763 360.452 154.984Z" fill="#2A5EBC"/>
<path d="M351.204 129.845C354.692 131.334 358.261 130.804 359.176 128.661C360.091 126.519 358.004 123.575 354.516 122.086C351.029 120.597 347.46 121.127 346.545 123.27C345.63 125.412 347.717 128.356 351.204 129.845Z" fill="#2A5EBC"/>
<path d="M345.499 146.531C348.933 150.766 353.625 152.653 355.979 150.745C358.333 148.836 357.457 143.856 354.023 139.62C350.589 135.385 345.897 133.499 343.543 135.407C341.19 137.315 342.065 142.296 345.499 146.531Z" fill="#2A5EBC"/>
<path d="M167.577 70.8399C168.572 73.2095 172.507 73.8173 176.366 72.1975C180.225 70.5777 182.547 67.3437 181.552 64.9741C180.557 62.6046 176.623 61.9967 172.764 63.6165C168.905 65.2363 166.583 68.4703 167.577 70.8399Z" fill="#2A5EBC"/>
<path d="M376.343 121.67C377.189 124.21 379.191 125.832 380.814 125.291C382.437 124.75 383.066 122.252 382.22 119.712C381.373 117.171 379.372 115.55 377.749 116.09C376.126 116.631 375.497 119.129 376.343 121.67Z" fill="#2A5EBC"/>
<path d="M349.017 99.2256C349.246 101.583 352.42 103.203 356.106 102.845C359.792 102.486 362.595 100.285 362.365 97.9274C362.136 95.5702 358.962 93.9499 355.276 94.3084C351.59 94.6669 348.788 96.8684 349.017 99.2256Z" fill="#2A5EBC"/>
<path d="M127.773 133.593C129.163 134.68 131.672 133.794 133.377 131.615C135.081 129.435 135.336 126.787 133.946 125.7C132.556 124.613 130.047 125.499 128.343 127.678C126.638 129.858 126.383 132.506 127.773 133.593Z" fill="#2A5EBC"/>
<path d="M143.523 139.834C145.843 140.723 148.528 139.344 149.521 136.753C150.514 134.162 149.438 131.341 147.118 130.452C144.798 129.563 142.113 130.943 141.12 133.533C140.127 136.124 141.203 138.946 143.523 139.834Z" fill="#2A5EBC"/>
<path d="M136.563 130.31C137.218 131.865 139.49 132.392 141.637 131.488C143.784 130.584 144.993 128.591 144.339 127.036C143.684 125.481 141.413 124.953 139.266 125.857C137.118 126.761 135.909 128.755 136.563 130.31Z" fill="#2A5EBC"/>
<path d="M326.458 94.0249C327.166 95.7047 329.451 96.3458 331.562 95.4567C333.674 94.5677 334.812 92.4852 334.104 90.8053C333.397 89.1255 331.112 88.4844 329.001 89.3735C326.889 90.2625 325.751 92.345 326.458 94.0249Z" fill="#2A5EBC"/>
<path d="M122.078 111.502C122.819 115.253 125.617 117.86 128.327 117.324C131.038 116.789 132.635 113.314 131.894 109.563C131.153 105.812 128.355 103.205 125.644 103.741C122.933 104.276 121.337 107.751 122.078 111.502Z" fill="#2A5EBC"/>
<path d="M124.28 102.033C125.915 103.03 128.257 102.173 129.51 100.118C130.764 98.0635 130.455 95.589 128.819 94.5914C127.184 93.5938 124.842 94.4509 123.589 96.5057C122.335 98.5606 122.644 101.035 124.28 102.033Z" fill="#2A5EBC"/>
<path d="M344.556 115.682C346.286 116.242 348.316 114.759 349.09 112.37C349.864 109.981 349.089 107.589 347.358 107.029C345.628 106.469 343.598 107.951 342.824 110.341C342.05 112.73 342.826 115.121 344.556 115.682Z" fill="#2A5EBC"/>
<path d="M366.898 137.72C368.978 139.419 371.563 139.695 372.672 138.337C373.781 136.98 372.993 134.502 370.913 132.803C368.833 131.104 366.248 130.828 365.139 132.186C364.03 133.544 364.817 136.021 366.898 137.72Z" fill="#2A5EBC"/>
<path d="M372.395 155.57C374.826 156.15 377.61 153.215 378.613 149.014C379.616 144.814 378.457 140.938 376.026 140.357C373.594 139.777 370.81 142.712 369.807 146.913C368.805 151.113 369.963 154.989 372.395 155.57Z" fill="#2A5EBC"/>
<path d="M379.96 167.111C379.967 172.831 382.621 177.464 385.887 177.459C389.153 177.455 391.795 172.815 391.788 167.095C391.78 161.376 389.126 156.743 385.86 156.747C382.594 156.751 379.952 161.391 379.96 167.111Z" fill="#2A5EBC"/>
<path d="M216.203 91.7786C215.892 94.7576 217.037 97.3187 218.762 97.4988C220.486 97.679 222.136 95.4101 222.448 92.431C222.759 89.452 221.613 86.891 219.889 86.7108C218.165 86.5306 216.515 88.7995 216.203 91.7786Z" fill="#2A5EBC"/>
<path d="M202.323 85.33C206.113 90.0043 211.288 92.0884 213.882 89.9851C216.476 87.8818 215.507 82.3875 211.717 77.7133C207.927 73.039 202.752 70.9548 200.158 73.0581C197.564 75.1614 198.533 80.6557 202.323 85.33Z" fill="#2A5EBC"/>
<path d="M227.901 92.2912C230.321 92.869 233.093 89.9472 234.091 85.7653C235.089 81.5834 233.936 77.725 231.516 77.1472C229.096 76.5695 226.324 79.4912 225.326 83.6731C224.328 87.855 225.481 91.7135 227.901 92.2912Z" fill="#2A5EBC"/>
<path d="M235.434 103.879C235.441 109.614 238.105 114.26 241.382 114.256C244.66 114.252 247.311 109.599 247.304 103.864C247.296 98.1287 244.633 93.4829 241.355 93.4872C238.078 93.4915 235.427 98.1442 235.434 103.879Z" fill="#2A5EBC"/>
<path d="M368.82 170C369.381 172.892 371.332 174.945 373.178 174.587C375.025 174.229 376.067 171.595 375.506 168.704C374.946 165.813 372.994 163.759 371.148 164.117C369.302 164.475 368.259 167.109 368.82 170Z" fill="#2A5EBC"/>
<path d="M328.778 137.125C331.434 138.433 334.238 138.171 335.042 136.54C335.846 134.908 334.345 132.525 331.689 131.216C329.033 129.908 326.229 130.17 325.425 131.802C324.621 133.434 326.123 135.817 328.778 137.125Z" fill="#2A5EBC"/>
<path d="M401.027 56.5641C401.909 58.6112 405.326 59.1066 408.66 57.6706C411.994 56.2345 413.981 53.4108 413.099 51.3636C412.218 49.3164 408.8 48.821 405.466 50.2571C402.133 51.6932 400.145 54.5169 401.027 56.5641Z" fill="#2A5EBC"/>
<path d="M435.267 53.8578C437.684 55.4646 440.444 55.5628 441.431 54.0772C442.419 52.5915 441.26 50.0846 438.843 48.4778C436.426 46.871 433.666 46.7728 432.679 48.2584C431.691 49.7441 432.85 52.251 435.267 53.8578Z" fill="#2A5EBC"/>
<path d="M403.593 38.6324C405.775 41.3171 408.936 42.3616 410.654 40.9655C412.372 39.5693 411.995 36.2611 409.813 33.5764C407.631 30.8918 404.47 29.8473 402.752 31.2434C401.034 32.6396 401.411 35.9478 403.593 38.6324Z" fill="#2A5EBC"/>
<path d="M423.341 66.8362C427.315 69.4778 431.969 69.4639 433.736 66.8051C435.504 64.1464 433.715 59.8497 429.742 57.2081C425.768 54.5665 421.114 54.5804 419.347 57.2391C417.579 59.8979 419.368 64.1946 423.341 66.8362Z" fill="#2A5EBC"/>
<path d="M235.873 157.334C237.995 158.376 240.388 157.853 241.217 156.165C242.046 154.477 240.998 152.263 238.876 151.221C236.754 150.178 234.361 150.701 233.532 152.389C232.702 154.077 233.751 156.291 235.873 157.334Z" fill="#2A5EBC"/>
<path d="M222.224 159.182C226.182 161.813 230.817 161.799 232.579 159.149C234.34 156.5 232.559 152.22 228.602 149.589C224.644 146.958 220.008 146.973 218.247 149.622C216.486 152.271 218.267 156.552 222.224 159.182Z" fill="#2A5EBC"/>
<path d="M422.38 37.6197C422.857 39.3268 425.156 40.1764 427.515 39.5175C429.874 38.8586 431.4 36.9405 430.924 35.2335C430.447 33.5264 428.148 32.6767 425.789 33.3357C423.429 33.9946 421.903 35.9127 422.38 37.6197Z" fill="#2A5EBC"/>
<path d="M323.916 125.3C324.406 127.831 326.113 129.628 327.728 129.315C329.342 129.002 330.253 126.697 329.763 124.167C329.272 121.636 327.565 119.839 325.951 120.152C324.336 120.465 323.425 122.77 323.916 125.3Z" fill="#2A5EBC"/>
<path d="M396.486 124.603C398.426 126.661 401.088 127.303 402.431 126.037C403.775 124.77 403.29 122.075 401.35 120.017C399.409 117.959 396.747 117.317 395.404 118.583C394.061 119.849 394.545 122.545 396.486 124.603Z" fill="#2A5EBC"/>
<path d="M257.435 37.6765C257.087 41.014 258.368 43.8828 260.297 44.0843C262.227 44.2857 264.073 41.7435 264.421 38.406C264.77 35.0685 263.488 32.1997 261.559 31.9983C259.63 31.7968 257.784 34.3391 257.435 37.6765Z" fill="#2A5EBC"/>
<path d="M232.152 24.9985C234.755 28.2089 238.31 29.6398 240.092 28.1945C241.875 26.7493 241.21 22.9752 238.607 19.7648C236.004 16.5544 232.449 15.1235 230.666 16.5688C228.884 18.0141 229.549 21.7882 232.152 24.9985Z" fill="#2A5EBC"/>
<path d="M266.392 24.0629C267.206 26.5044 269.13 28.0623 270.69 27.5425C272.251 27.0227 272.856 24.622 272.043 22.1805C271.23 19.739 269.305 18.1811 267.745 18.7009C266.185 19.2207 265.579 21.6214 266.392 24.0629Z" fill="#2A5EBC"/>
<path d="M251.648 20.9953C253.869 22.809 256.628 23.1057 257.81 21.658C258.993 20.2102 258.151 17.5663 255.929 15.7525C253.708 13.9388 250.949 13.6421 249.767 15.0898C248.585 16.5375 249.427 19.1815 251.648 20.9953Z" fill="#2A5EBC"/>
<path d="M315.35 72.4966C315.86 74.3511 318.723 75.1807 321.746 74.3497C324.768 73.5186 326.805 71.3415 326.295 69.4871C325.785 67.6326 322.922 66.8029 319.899 67.634C316.877 68.4651 314.84 70.6421 315.35 72.4966Z" fill="#2A5EBC"/>
<path d="M275.469 30.6173C277.155 31.0199 279.086 28.9844 279.781 26.071C280.476 23.1576 279.673 20.4695 277.987 20.067C276.301 19.6644 274.37 21.6999 273.674 24.6133C272.979 27.5267 273.782 30.2148 275.469 30.6173Z" fill="#2A5EBC"/>
<path d="M270.675 60.3974C272.987 64.5445 276.86 66.7926 279.323 65.4187C281.787 64.0448 281.91 59.5691 279.598 55.4219C277.285 51.2748 273.413 49.0267 270.949 50.4006C268.485 51.7746 268.362 56.2503 270.675 60.3974Z" fill="#2A5EBC"/>
<path d="M305.967 75.6225C308.342 76.9083 311.864 75.0014 313.834 71.3633C315.803 67.7251 315.473 63.7335 313.098 62.4478C310.722 61.162 307.2 63.0689 305.231 66.707C303.262 70.3451 303.591 74.3367 305.967 75.6225Z" fill="#2A5EBC"/>
<path d="M405.81 78.9394C406.301 80.7267 409.059 81.5268 411.97 80.7265C414.88 79.9262 416.841 77.8286 416.35 76.0413C415.858 74.2539 413.1 73.4538 410.19 74.2541C407.28 75.0544 405.319 77.152 405.81 78.9394Z" fill="#2A5EBC"/>
<path d="M396.376 81.8413C398.652 83.0736 402.029 81.2448 403.917 77.7564C405.805 74.268 405.49 70.4411 403.213 69.2088C400.936 67.9764 397.56 69.8053 395.672 73.2936C393.784 76.782 394.099 80.6089 396.376 81.8413Z" fill="#2A5EBC"/>
<path d="M298.156 35.0788C300.04 38.1449 302.947 39.7829 304.648 38.7374C306.35 37.6918 306.201 34.3586 304.317 31.2924C302.432 28.2263 299.525 26.5883 297.824 27.6338C296.123 28.6794 296.271 32.0126 298.156 35.0788Z" fill="#2A5EBC"/>
<path d="M305.992 51.4702C306.911 54.8135 311.398 56.4949 316.014 55.2257C320.63 53.9566 323.626 50.2174 322.707 46.8741C321.787 43.5308 317.3 41.8494 312.685 43.1186C308.069 44.3878 305.073 48.1269 305.992 51.4702Z" fill="#2A5EBC"/>
<path d="M264.723 45.4133C265.306 48.4184 267.334 50.5528 269.252 50.1808C271.171 49.8087 272.254 47.0711 271.671 44.066C271.088 41.0609 269.06 38.9264 267.142 39.2985C265.223 39.6705 264.141 42.4082 264.723 45.4133Z" fill="#2A5EBC"/>
<path d="M287.342 75.1229C287.268 77.3468 290.023 79.2433 293.496 79.3589C296.97 79.4744 299.845 77.7652 299.919 75.5413C299.993 73.3174 297.237 71.4208 293.764 71.3053C290.291 71.1898 287.415 72.8989 287.342 75.1229Z" fill="#2A5EBC"/>
<path d="M304.813 90.5408C305.765 94.0035 310.067 95.8399 314.421 94.6425C318.776 93.4452 321.534 89.6675 320.582 86.2048C319.63 82.7421 315.328 80.9057 310.973 82.103C306.619 83.3004 303.861 87.0781 304.813 90.5408Z" fill="#2A5EBC"/>
<path d="M106.155 115.18C106.658 117.009 109.479 117.827 112.457 117.008C115.434 116.189 117.441 114.044 116.938 112.215C116.435 110.387 113.614 109.568 110.636 110.387C107.659 111.206 105.652 113.352 106.155 115.18Z" fill="#2A5EBC"/>
<path d="M96.7224 118.289C99.0775 119.564 102.57 117.673 104.522 114.065C106.475 110.458 106.149 106.5 103.793 105.225C101.438 103.951 97.9463 105.842 95.9937 109.449C94.0411 113.057 94.3673 117.015 96.7224 118.289Z" fill="#2A5EBC"/>
<path d="M104.69 150.274C105.629 153.692 109.873 155.506 114.168 154.325C118.462 153.144 121.182 149.416 120.242 145.998C119.302 142.58 115.059 140.766 110.764 141.947C106.469 143.128 103.75 146.856 104.69 150.274Z" fill="#2A5EBC"/>
<path d="M288.814 41.8484C292.111 45.3455 296.632 46.4372 298.913 44.2869C301.194 42.1366 300.37 37.5584 297.073 34.0614C293.776 30.5643 289.254 29.4725 286.973 31.6229C284.692 33.7732 285.516 38.3513 288.814 41.8484Z" fill="#2A5EBC"/>
<path d="M335.467 52.2837C337.119 52.8107 339.153 51.0591 340.01 48.3715C340.868 45.6838 340.224 43.0779 338.572 42.5509C336.92 42.024 334.886 43.7755 334.029 46.4632C333.171 49.1508 333.815 51.7568 335.467 52.2837Z" fill="#2A5EBC"/>
<path d="M244.368 8.83329C246.512 12.3215 249.821 14.1833 251.76 12.9919C253.699 11.8004 253.532 8.00682 251.388 4.51865C249.245 1.03049 245.935 -0.831363 243.997 0.360094C242.058 1.55155 242.224 5.34513 244.368 8.83329Z" fill="#2A5EBC"/>
<path d="M316.298 31.6368C316.224 33.853 318.977 35.7431 322.446 35.8585C325.915 35.974 328.788 34.2709 328.861 32.0547C328.935 29.8386 326.182 27.9484 322.713 27.833C319.244 27.7176 316.372 29.4206 316.298 31.6368Z" fill="#2A5EBC"/>
<path d="M346.091 41.4636C346.586 43.2621 348.82 44.216 351.081 43.5943C353.342 42.9725 354.774 41.0105 354.28 39.212C353.785 37.4135 351.551 36.4595 349.29 37.0813C347.029 37.703 345.597 39.6651 346.091 41.4636Z" fill="#2A5EBC"/>
<path d="M259.94 97.383C260.945 101.04 265.484 102.98 270.077 101.717C274.671 100.454 277.579 96.4659 276.574 92.8092C275.568 89.1525 271.029 87.212 266.436 88.475C261.843 89.738 258.934 93.7263 259.94 97.383Z" fill="#2A5EBC"/>
<path d="M178.363 132.649C177.91 136.979 179.575 140.702 182.08 140.964C184.586 141.225 186.984 137.927 187.436 133.597C187.889 129.267 186.224 125.545 183.719 125.283C181.213 125.021 178.815 128.319 178.363 132.649Z" fill="#2A5EBC"/>
<path d="M184.94 124.293C186.945 125.93 189.436 126.198 190.503 124.891C191.57 123.585 190.81 121.198 188.804 119.56C186.799 117.923 184.308 117.655 183.241 118.961C182.174 120.268 182.934 122.655 184.94 124.293Z" fill="#2A5EBC"/>
<path d="M196.425 304.518C196.12 307.443 197.245 309.958 198.938 310.135C200.632 310.312 202.252 308.084 202.558 305.159C202.864 302.233 201.739 299.719 200.045 299.542C198.352 299.365 196.731 301.593 196.425 304.518Z" fill="#2A5EBC"/>
<path d="M266.23 130.771C266.416 132.596 267.475 133.983 268.595 133.869C269.716 133.754 270.473 132.183 270.287 130.358C270.101 128.533 269.043 127.146 267.922 127.26C266.802 127.374 266.044 128.946 266.23 130.771Z" fill="#2A5EBC"/>
<path d="M270.309 127.134C271.944 127.44 273.699 125.396 274.227 122.57C274.755 119.743 273.857 117.204 272.221 116.899C270.586 116.593 268.831 118.636 268.303 121.463C267.775 124.289 268.673 126.828 270.309 127.134Z" fill="#2A5EBC"/>
<path d="M353.049 196.914C353.593 198.864 356.21 199.836 358.894 199.087C361.577 198.337 363.311 196.149 362.767 194.2C362.222 192.251 359.606 191.278 356.922 192.028C354.238 192.777 352.504 194.965 353.049 196.914Z" fill="#2A5EBC"/>
<path d="M345.728 201.449C348.39 202.311 351.513 200.028 352.704 196.35C353.895 192.673 352.703 188.992 350.041 188.13C347.38 187.268 344.256 189.551 343.065 193.229C341.874 196.907 343.066 200.587 345.728 201.449Z" fill="#2A5EBC"/>
<path d="M200.011 132.384C202.763 133.614 205.572 133.32 206.284 131.726C206.996 130.133 205.343 127.844 202.59 126.614C199.838 125.384 197.03 125.678 196.318 127.271C195.605 128.865 197.259 131.154 200.011 132.384Z" fill="#2A5EBC"/>
<path d="M207.804 150.3C209.746 152.144 212.407 152.494 213.747 151.083C215.087 149.671 214.6 147.032 212.658 145.188C210.716 143.344 208.055 142.994 206.714 144.405C205.374 145.817 205.862 148.456 207.804 150.3Z" fill="#2A5EBC"/>
<path d="M198.873 140.316C199.505 143.066 203.096 144.587 206.894 143.715C210.692 142.843 213.259 139.907 212.627 137.157C211.996 134.408 208.405 132.886 204.607 133.758C200.809 134.63 198.242 137.566 198.873 140.316Z" fill="#2A5EBC"/>
<path d="M248.934 193.684C249.5 195.708 252.212 196.719 254.992 195.942C257.773 195.166 259.569 192.896 259.003 190.872C258.438 188.848 255.726 187.837 252.945 188.613C250.165 189.39 248.369 191.66 248.934 193.684Z" fill="#2A5EBC"/>
<path d="M260.787 197.436C262.592 199.351 265.069 199.947 266.319 198.769C267.569 197.59 267.12 195.082 265.314 193.167C263.509 191.253 261.032 190.656 259.782 191.835C258.532 193.014 258.982 195.521 260.787 197.436Z" fill="#2A5EBC"/>
<path d="M378.903 29.425C382.719 31.9616 387.302 31.7764 389.14 29.0113C390.978 26.2462 389.375 21.9483 385.56 19.4117C381.744 16.8751 377.161 17.0604 375.322 19.8254C373.484 22.5905 375.087 26.8884 378.903 29.425Z" fill="#2A5EBC"/>
<path d="M365.369 16.9316C366.03 19.2984 369.216 20.477 372.485 19.564C375.754 18.6511 377.868 15.9924 377.207 13.6256C376.546 11.2588 373.36 10.0803 370.091 10.9932C366.822 11.9061 364.708 14.5649 365.369 16.9316Z" fill="#2A5EBC"/>
<path d="M307.279 123.178C309.095 125.104 311.585 125.705 312.84 124.521C314.096 123.337 313.642 120.816 311.826 118.89C310.011 116.964 307.521 116.363 306.265 117.547C305.009 118.731 305.463 121.252 307.279 123.178Z" fill="#2A5EBC"/>
<path d="M238.333 60.508C238.982 62.8301 242.097 63.9893 245.291 63.0971C248.485 62.205 250.549 59.5994 249.9 57.2774C249.252 54.9553 246.137 53.7961 242.942 54.6882C239.748 55.5804 237.685 58.186 238.333 60.508Z" fill="#2A5EBC"/>
<path d="M230.282 65.8171C233.363 66.815 236.979 64.171 238.359 59.9114C239.739 55.6518 238.359 51.3897 235.277 50.3917C232.196 49.3937 228.579 52.0378 227.2 56.2974C225.82 60.557 227.2 64.8191 230.282 65.8171Z" fill="#2A5EBC"/>
<path d="M252.885 65.234C255.083 67.5654 258.098 68.2932 259.618 66.8596C261.139 65.4261 260.59 62.374 258.391 60.0426C256.193 57.7112 253.179 56.9834 251.658 58.4169C250.138 59.8505 250.687 62.9026 252.885 65.234Z" fill="#2A5EBC"/>
<path d="M111.348 190.902C112.997 191.2 114.727 189.265 115.212 186.581C115.697 183.896 114.754 181.478 113.105 181.18C111.456 180.882 109.726 182.817 109.241 185.501C108.756 188.186 109.699 190.604 111.348 190.902Z" fill="#2A5EBC"/>
<path d="M95.127 207.886C95.7998 209.484 98.4529 209.892 101.053 208.797C103.653 207.702 105.215 205.519 104.542 203.921C103.87 202.324 101.217 201.916 98.6165 203.011C96.0165 204.105 94.4542 206.288 95.127 207.886Z" fill="#2A5EBC"/>
<path d="M135.589 228.006C135.29 230.858 136.387 233.31 138.039 233.482C139.69 233.655 141.27 231.483 141.568 228.631C141.866 225.779 140.769 223.327 139.118 223.154C137.467 222.982 135.887 225.154 135.589 228.006Z" fill="#2A5EBC"/>
<path d="M152.606 239.4C153.197 243.873 155.747 247.226 158.302 246.888C160.858 246.551 162.45 242.651 161.859 238.178C161.268 233.704 158.718 230.351 156.163 230.689C153.607 231.026 152.015 234.926 152.606 239.4Z" fill="#2A5EBC"/>
<path d="M144.19 210.643C148.084 212.305 151.983 211.913 152.899 209.767C153.815 207.621 151.402 204.533 147.508 202.871C143.614 201.209 139.715 201.602 138.799 203.748C137.883 205.894 140.297 208.981 144.19 210.643Z" fill="#2A5EBC"/>
<path d="M105.021 228.034C105.633 229.486 107.753 229.978 109.757 229.134C111.762 228.29 112.891 226.429 112.28 224.978C111.669 223.526 109.548 223.033 107.544 223.877C105.54 224.721 104.41 226.582 105.021 228.034Z" fill="#2A5EBC"/>
<path d="M43.3 208.43C43.9443 209.96 46.1782 210.479 48.2896 209.59C50.401 208.701 51.5903 206.74 50.9461 205.21C50.3018 203.68 48.0679 203.16 45.9565 204.049C43.8451 204.939 42.6558 206.9 43.3 208.43Z" fill="#2A5EBC"/>
<path d="M152.486 223.651C153.36 226.276 155.429 227.951 157.107 227.392C158.785 226.833 159.436 224.252 158.562 221.627C157.687 219.001 155.618 217.327 153.94 217.885C152.262 218.444 151.611 221.026 152.486 223.651Z" fill="#2A5EBC"/>
<path d="M139.236 111.829C139.795 116.064 142.211 119.239 144.632 118.919C147.053 118.599 148.562 114.906 148.002 110.671C147.443 106.435 145.027 103.261 142.606 103.581C140.185 103.901 138.676 107.593 139.236 111.829Z" fill="#2A5EBC"/>
<path d="M138.566 95.27C139.573 98.2916 141.954 100.22 143.885 99.5762C145.817 98.9329 146.566 95.9618 145.56 92.9402C144.553 89.9186 142.171 87.9906 140.24 88.6339C138.309 89.2773 137.56 92.2483 138.566 95.27Z" fill="#2A5EBC"/>
<path d="M125.141 193.711C125.432 196.708 129.468 198.768 134.156 198.312C138.843 197.856 142.407 195.057 142.116 192.06C141.824 189.064 137.788 187.004 133.1 187.46C128.413 187.916 124.849 190.715 125.141 193.711Z" fill="#2A5EBC"/>
<path d="M141.41 240.897C143.533 242.63 146.17 242.912 147.301 241.527C148.431 240.143 147.628 237.615 145.506 235.882C143.383 234.149 140.746 233.867 139.615 235.252C138.485 236.637 139.288 239.164 141.41 240.897Z" fill="#2A5EBC"/>
<path d="M66.7065 217.799C67.4739 219.622 69.9522 220.318 72.2419 219.353C74.5316 218.389 75.7657 216.13 74.9983 214.308C74.2309 212.485 71.7526 211.789 69.4629 212.754C67.1731 213.718 65.939 215.977 66.7065 217.799Z" fill="#2A5EBC"/>
<path d="M173.484 242.116C175.136 242.51 177.029 240.514 177.711 237.657C178.393 234.8 177.606 232.165 175.953 231.77C174.301 231.376 172.409 233.372 171.727 236.229C171.045 239.086 171.831 241.722 173.484 242.116Z" fill="#2A5EBC"/>
<path d="M146.858 268.281C147.583 272.02 150.105 274.675 152.491 274.212C154.876 273.75 156.223 270.344 155.498 266.606C154.773 262.868 152.251 260.212 149.865 260.675C147.48 261.138 146.133 264.543 146.858 268.281Z" fill="#2A5EBC"/>
<path d="M45.1425 129.852C45.262 133.708 47.397 136.771 49.9112 136.694C52.4254 136.616 54.3667 133.426 54.2472 129.57C54.1277 125.714 51.9927 122.65 49.4785 122.728C46.9643 122.806 45.023 125.996 45.1425 129.852Z" fill="#2A5EBC"/>
<path d="M40.216 120.223C40.996 124.164 43.6693 126.955 46.1868 126.457C48.7043 125.959 50.1128 122.36 49.3328 118.419C48.5527 114.478 45.8795 111.687 43.362 112.185C40.8445 112.684 39.4359 116.282 40.216 120.223Z" fill="#2A5EBC"/>
<path d="M59.6539 179.248C59.7689 182.958 61.8218 185.904 64.2393 185.829C66.6568 185.754 68.5234 182.686 68.4085 178.977C68.2935 175.268 66.2406 172.321 63.8231 172.396C61.4056 172.471 59.539 175.539 59.6539 179.248Z" fill="#2A5EBC"/>
<path d="M52.9376 168.876C53.6611 172.606 56.1785 175.256 58.5605 174.794C60.9426 174.332 62.2871 170.934 61.5636 167.203C60.8402 163.472 58.3227 160.822 55.9406 161.284C53.5586 161.746 52.2141 165.145 52.9376 168.876Z" fill="#2A5EBC"/>
<path d="M169.181 283.284C171.942 286.212 175.73 287.125 177.642 285.323C179.554 283.52 178.865 279.685 176.104 276.757C173.344 273.828 169.555 272.916 167.644 274.718C165.732 276.521 166.42 280.356 169.181 283.284Z" fill="#2A5EBC"/>
<path d="M23.159 140.616C22.8485 143.588 23.9915 146.142 25.712 146.322C27.4324 146.502 29.0789 144.239 29.3893 141.268C29.6998 138.296 28.5568 135.742 26.8363 135.562C25.1158 135.382 23.4694 137.645 23.159 140.616Z" fill="#2A5EBC"/>
<path d="M20.6531 128.266C20.3386 131.276 21.4971 133.864 23.2407 134.046C24.9842 134.228 26.6526 131.936 26.9671 128.926C27.2816 125.916 26.1231 123.329 24.3796 123.146C22.636 122.964 20.9676 125.256 20.6531 128.266Z" fill="#2A5EBC"/>
<path d="M13.7375 154.305C14.5178 156.648 16.3618 158.143 17.8561 157.645C19.3504 157.147 19.9291 154.845 19.1488 152.503C18.3684 150.16 16.5245 148.665 15.0302 149.163C13.5359 149.66 12.9571 151.963 13.7375 154.305Z" fill="#2A5EBC"/>
<path d="M56.7015 215.623C57.1314 217.186 59.5459 217.885 62.0944 217.185C64.6429 216.484 66.3603 214.648 65.9304 213.085C65.5005 211.521 63.0861 210.822 60.5376 211.523C57.9891 212.224 56.2716 214.059 56.7015 215.623Z" fill="#2A5EBC"/>
<path d="M34.6716 169.078C36.3504 169.478 38.2722 167.454 38.964 164.555C39.6558 161.657 38.8557 158.982 37.177 158.582C35.4982 158.181 33.5764 160.206 32.8846 163.104C32.1928 166.002 32.9928 168.677 34.6716 169.078Z" fill="#2A5EBC"/>
<path d="M17.0046 215.47C18.8667 218.809 21.9845 220.619 23.9685 219.513C25.9525 218.407 26.0514 214.803 24.1893 211.464C22.3272 208.124 19.2094 206.314 17.2254 207.42C15.2414 208.527 15.1425 212.13 17.0046 215.47Z" fill="#2A5EBC"/>
<path d="M40.4829 187.814C44.0147 193.561 49.465 196.629 52.6564 194.668C55.8479 192.706 55.572 186.458 52.0401 180.711C48.5083 174.964 43.058 171.896 39.8666 173.857C36.6751 175.819 36.9511 182.067 40.4829 187.814Z" fill="#2A5EBC"/>
<path d="M65.8842 198.952C66.3459 200.631 68.5987 201.476 70.9158 200.839C73.233 200.202 74.7371 198.324 74.2754 196.645C73.8137 194.966 71.561 194.121 69.2438 194.758C66.9267 195.396 65.4225 197.273 65.8842 198.952Z" fill="#2A5EBC"/>
<path d="M30.7247 222.97C30.6499 225.217 33.4394 227.133 36.9551 227.25C40.4709 227.367 43.3816 225.64 43.4563 223.393C43.5311 221.146 40.7416 219.229 37.2258 219.113C33.7101 218.996 30.7994 220.722 30.7247 222.97Z" fill="#2A5EBC"/>
<path d="M45.5124 224.288C46.2573 226.997 49.6229 228.433 53.0296 227.497C56.4363 226.56 58.5941 223.604 57.8493 220.895C57.1044 218.186 53.7388 216.75 50.3321 217.686C46.9254 218.623 44.7675 221.579 45.5124 224.288Z" fill="#2A5EBC"/>
<path d="M220.311 128.351C220.238 130.532 222.945 132.392 226.356 132.506C229.767 132.619 232.592 130.943 232.664 128.762C232.737 126.58 230.03 124.72 226.619 124.606C223.207 124.493 220.383 126.169 220.311 128.351Z" fill="#2A5EBC"/>
<path d="M234.815 129.688C235.574 132.449 239.003 133.914 242.473 132.959C245.943 132.005 248.141 128.993 247.382 126.232C246.622 123.471 243.194 122.006 239.723 122.96C236.253 123.914 234.056 126.926 234.815 129.688Z" fill="#2A5EBC"/>
<path d="M195.05 273.973C194.981 276.058 197.565 277.836 200.821 277.944C204.078 278.053 206.774 276.45 206.844 274.366C206.913 272.281 204.329 270.503 201.072 270.395C197.816 270.287 195.12 271.889 195.05 273.973Z" fill="#2A5EBC"/>
<path d="M207.736 274.967C208.475 277.654 211.814 279.078 215.195 278.148C218.575 277.219 220.717 274.287 219.978 271.601C219.24 268.914 215.9 267.49 212.52 268.42C209.139 269.349 206.997 272.281 207.736 274.967Z" fill="#2A5EBC"/>
<path d="M25.6136 186.875C27.5064 188.882 30.1022 189.509 31.4115 188.275C32.7208 187.04 32.2477 184.412 30.3549 182.404C28.4621 180.397 25.8662 179.77 24.557 181.005C23.2477 182.239 23.7207 184.867 25.6136 186.875Z" fill="#2A5EBC"/>
<path d="M78.2886 197.93C79.8737 198.428 81.817 196.737 82.6291 194.153C83.4412 191.569 82.8145 189.07 81.2294 188.572C79.6443 188.074 77.701 189.765 76.8889 192.349C76.0768 194.933 76.7035 197.432 78.2886 197.93Z" fill="#2A5EBC"/>
<path d="M93.969 175.547C94.4451 177.278 97.1178 178.053 99.9387 177.277C102.76 176.502 104.66 174.469 104.184 172.738C103.708 171.007 101.036 170.232 98.2147 171.008C95.3938 171.783 93.493 173.816 93.969 175.547Z" fill="#2A5EBC"/>
<path d="M42.7972 157.737C43.8488 159.623 45.6083 160.646 46.7271 160.022C47.8458 159.398 47.9002 157.364 46.8485 155.478C45.7969 153.592 44.0374 152.569 42.9186 153.193C41.7999 153.816 41.7455 155.851 42.7972 157.737Z" fill="#2A5EBC"/>
<path d="M36.5586 146.932C37.2681 150.591 39.7372 153.189 42.0737 152.736C44.4101 152.283 45.729 148.95 45.0196 145.291C44.3101 141.633 41.8409 139.034 39.5045 139.488C37.168 139.941 35.8492 143.274 36.5586 146.932Z" fill="#2A5EBC"/>
<path d="M67.737 180.548C67.6712 182.525 70.1231 184.21 73.2134 184.313C76.3037 184.416 78.8622 182.897 78.928 180.92C78.9937 178.944 76.5418 177.259 73.4515 177.156C70.3612 177.053 67.8027 178.572 67.737 180.548Z" fill="#2A5EBC"/>
<path d="M100.609 189.422C101.103 191.221 103.337 192.175 105.599 191.553C107.86 190.931 109.292 188.969 108.797 187.171C108.303 185.372 106.069 184.418 103.808 185.04C101.546 185.662 100.114 187.624 100.609 189.422Z" fill="#2A5EBC"/>
</g>
<defs>
<clipPath id="clip0_1_441">
<rect width="437" height="173" fill="white"/>
</clipPath>
</defs>
</svg>
