<svg width="267" height="103" viewBox="0 0 267 103" fill="none" xmlns="http://www.w3.org/2000/svg">
<rect width="267" height="103" fill="#0A398A"/>
<path d="M133.005 62.3922H124.752V40.3294H133.005V62.3922ZM125.558 61.5863H132.199V41.1353H125.558V61.5863ZM144.488 62.3922H136.401V40.3294H153.297C155.717 40.1334 158.127 40.8129 160.089 42.2442C160.933 43.0168 161.588 43.974 162.001 45.0412C162.415 46.1085 162.576 47.2568 162.473 48.3966C162.593 50.3662 161.967 52.3089 160.718 53.8366C159.239 55.5322 156.78 56.4059 153.408 56.4365C152.558 56.4591 146.193 56.4365 144.493 56.4365L144.488 62.3922ZM137.202 61.5863H143.682V55.6225H144.087C144.169 55.6225 152.433 55.6483 153.388 55.6225C156.53 55.5951 158.788 54.8166 160.108 53.2966C161.22 51.9144 161.772 50.1651 161.656 48.395C161.755 47.3737 161.617 46.3433 161.254 45.3837C160.89 44.4241 160.311 43.561 159.56 42.8616C157.741 41.5561 155.516 40.9434 153.285 41.1337H137.207L137.202 61.5863ZM151.585 51.4801H143.627V45.4744H151.638C152.206 45.3959 152.784 45.4622 153.32 45.667C153.855 45.8719 154.33 46.2087 154.701 46.6462C155.037 47.2054 155.195 47.8534 155.155 48.5046C155.185 49.1092 155.055 49.711 154.776 50.2486C154.394 50.7094 153.9 51.0641 153.341 51.2787C152.782 51.4932 152.177 51.5603 151.585 51.4736V51.4801ZM144.433 50.6742H151.585C152.907 50.6742 153.725 50.3985 154.088 49.8312C154.288 49.4188 154.378 48.962 154.351 48.5046C154.386 48.0244 154.282 47.5442 154.051 47.1217L154.041 47.1071C153.658 46.543 152.895 46.2803 151.638 46.2803H144.433V50.6742ZM177.181 62.7178C169.944 62.7178 165.624 60.9206 163.978 57.2247C163.709 56.5108 163.526 55.7673 163.433 55.01L163.363 54.5458H171.973L172.029 54.8843C172.096 55.2279 172.242 55.5514 172.455 55.8288C172.795 56.2398 173.93 56.9297 177.695 56.9297C182.221 56.9297 182.221 56.1351 182.221 55.7079C182.221 54.9874 181.697 54.7408 178.006 54.3475L177.305 54.2815C175.916 54.1509 174.159 53.9849 173.356 53.9156C166.586 53.3031 163.564 51.1996 163.564 47.0975C163.564 42.789 168.707 40.0054 176.668 40.0054C183.162 40.0054 187.347 41.7171 189.102 45.0972C189.518 45.8834 189.798 46.7348 189.929 47.6149L189.985 48.0678H181.365L181.33 47.7035C181.296 47.4188 181.175 47.1518 180.982 46.9395C180.659 46.5075 179.641 45.7935 176.478 45.7935C172.595 45.7935 172.06 46.2899 172.06 46.8251C172.06 47.5391 173.287 47.7922 177.218 48.2129C178.857 48.3467 181.493 48.6174 182.395 48.727C188.07 49.3428 190.603 51.3946 190.603 55.3823C190.604 58.7269 188.275 62.7178 177.181 62.7178ZM164.304 55.3517C164.385 55.8833 164.524 56.4043 164.718 56.9055C166.217 60.2727 170.295 61.9119 177.181 61.9119C182.938 61.9119 189.803 60.7836 189.803 55.3823C189.803 51.8476 187.563 50.0971 182.31 49.5281C181.407 49.4185 178.788 49.1494 177.152 49.014C172.961 48.5594 171.257 48.3176 171.257 46.8251C171.257 45.2809 173.093 44.9876 176.481 44.9876C179.159 44.9876 180.888 45.4711 181.622 46.4463C181.821 46.6865 181.973 46.9636 182.066 47.2619H189.052C188.912 46.6385 188.689 46.0364 188.391 45.4711C186.779 42.378 182.842 40.8113 176.672 40.8113C169.201 40.8113 164.373 43.279 164.373 47.0975C164.373 50.7402 167.083 52.5391 173.43 53.1129C174.236 53.1822 175.991 53.3482 177.384 53.4804L178.09 53.5465C181.518 53.9075 183.03 54.1332 183.03 55.7079C183.03 57.4036 181.075 57.7356 177.698 57.7356C174.575 57.7356 172.602 57.2666 171.839 56.343C171.604 56.0485 171.427 55.7121 171.317 55.3517H164.304ZM205.915 62.6904C197.501 62.6904 192.859 59.2878 192.859 53.108V40.3294H201.002V53.108C201.002 55.2276 202.899 56.4429 206.205 56.4429C209.365 56.4429 211.326 55.1744 211.326 53.1354V40.3294H219.385V53.785C219.393 59.4442 214.479 62.6904 205.91 62.6904H205.915ZM193.665 41.1353V53.108C193.665 60.7449 201.334 61.8845 205.915 61.8845C210.651 61.8845 218.592 60.832 218.592 53.785V41.1353H212.145V53.1354C212.145 55.6338 209.817 57.2489 206.218 57.2489C202.456 57.2489 200.209 55.7015 200.209 53.108V41.1353H193.665ZM253.537 62.3922H245.852V52.4311L241.493 62.3922H234.79L230.476 52.4504V62.3922H222.764V40.3294H232.909L238.179 52.4939L243.705 40.3294H253.547L253.537 62.3922ZM246.658 61.5863H252.731V41.1353H244.217L238.154 54.4797L232.374 41.1353H223.563V61.5863H229.664V48.5723L235.306 61.5912H240.947L246.648 48.5917L246.658 61.5863ZM20.7581 40.7323H13.4177V61.9893H33.7011V56.3301H20.7581V40.7323ZM48.5172 40.2488C39.1476 40.2488 34.2202 44.6894 34.2202 51.2093C34.2202 58.5754 39.3926 62.3117 48.5172 62.3117C58.5622 62.3117 62.7868 57.979 62.7868 51.2093C62.7868 44.3348 58.0206 40.2455 48.5172 40.2455V40.2488ZM48.4898 45.7725C49.1276 45.7695 49.7651 45.8067 50.3982 45.8838L42.1923 54.0896C41.804 53.2114 41.6146 52.258 41.6379 51.2979C41.6379 47.963 43.3174 45.7693 48.4898 45.7693V45.7725ZM48.5172 56.8749C47.9026 56.8777 47.2885 56.8432 46.6781 56.7718L54.8985 48.5514C55.2723 49.4151 55.4512 50.3507 55.4223 51.2915C55.4223 54.5361 53.875 56.8717 48.5172 56.8717V56.8749ZM77.3305 53.9736H84.8852C84.774 54.4979 84.5422 54.9891 84.2082 55.4081C82.642 56.6841 80.6431 57.305 78.6296 57.1409C77.6161 57.2493 76.5913 57.1386 75.6243 56.8162C74.6574 56.494 73.7709 55.9676 73.0253 55.2727C72.2614 54.1523 71.8986 52.8068 71.9953 51.4543C71.8717 50.0371 72.2662 48.6231 73.1058 47.4746C74.1616 46.2819 75.9491 45.7677 78.5764 45.7677C80.2481 45.6293 81.9176 46.0586 83.3153 46.9863C83.7558 47.3362 84.0851 47.8065 84.263 48.3402H91.2697C91.2188 47.4609 91.0073 46.5983 90.6459 45.7951C88.968 42.3828 85.0673 40.3519 78.4346 40.3519C72.6658 40.3519 68.7942 42.112 66.6553 44.7668C65.2426 46.6838 64.5175 49.0211 64.5969 51.4011C64.5055 53.835 65.212 56.2319 66.6085 58.2272C68.7216 60.9674 72.4853 62.3149 77.0081 62.3149C80.015 62.5246 83.0014 61.6824 85.4558 59.9326L85.646 61.9893H91.4663V49.3976H77.3305V53.9736ZM107.986 40.2439C98.6181 40.2439 93.6891 44.6845 93.6891 51.2045C93.6891 58.5706 98.8599 62.3068 107.986 62.3068C118.033 62.3068 122.257 57.9742 122.257 51.2045C122.257 44.3348 117.491 40.2455 107.986 40.2455V40.2439ZM107.96 45.7677C108.581 45.7659 109.202 45.8014 109.819 45.8741L101.645 54.0526C101.269 53.184 101.086 52.2443 101.108 51.2979C101.102 47.963 102.788 45.7693 107.96 45.7693V45.7677ZM107.986 56.8701C107.355 56.8728 106.725 56.8361 106.099 56.7605L114.346 48.5111C114.734 49.3863 114.92 50.3378 114.89 51.2947C114.893 54.5361 113.352 56.8717 107.986 56.8717V56.8701Z" fill="white"/>
</svg>
